<?xml version="1.0" encoding="UTF-8" standalone="no"?>
<!DOCTYPE svg PUBLIC "-//W3C//DTD SVG 1.1//EN" "http://www.w3.org/Graphics/SVG/1.1/DTD/svg11.dtd">
<svg xmlns="http://www.w3.org/2000/svg" version="1.1" viewBox="0 0 612 612">
<g stroke-width="2.00" fill="none" stroke-linecap="butt">
<path stroke="#803631" vector-effect="non-scaling-stroke" d="
  M 163.71 176.50
  L 162.75 176.79"
/>
<path stroke="#965254" vector-effect="non-scaling-stroke" d="
  M 162.75 176.79
  Q 145.24 176.11 135.98 176.51
  C 117.95 177.30 111.01 188.45 111.01 204.79
  Q 110.99 316.77 111.02 428.75
  Q 111.02 431.57 110.50 434.08"
/>
<path stroke="#e69c95" vector-effect="non-scaling-stroke" d="
  M 110.50 434.08
  Q 89.05 478.08 67.55 522.04
  C 65.45 526.34 63.94 528.98 64.29 534.17"
/>
<path stroke="#f8aea7" vector-effect="non-scaling-stroke" d="
  M 64.29 534.17
  C 63.41 537.47 65.23 538.00 67.97 538.00
  Q 306.74 538.00 545.84 538.00
  A 1.84 1.60 -86.2 0 0 547.46 536.37
  L 547.71 534.12"
/>
<path stroke="#e69c95" vector-effect="non-scaling-stroke" d="
  M 547.71 534.12
  Q 548.07 529.15 546.27 525.49
  Q 523.91 480.22 501.96 434.75"
/>
<path stroke="#965254" vector-effect="non-scaling-stroke" d="
  M 501.96 434.75
  Q 502.04 320.61 501.99 206.47
  Q 501.99 196.30 500.57 192.20
  C 497.17 182.38 488.31 176.87 478.07 176.63
  Q 462.39 176.26 449.29 176.75"
/>
<path stroke="#f8aea7" vector-effect="non-scaling-stroke" d="
  M 449.29 176.75
  Q 451.80 143.12 449.21 108.99
  A 1.18 1.16 -4.8 0 0 447.93 107.92
  C 397.01 112.64 346.37 96.46 306.98 64.10
  A 0.62 0.62 45.4 0 0 306.20 64.09
  Q 244.61 114.03 164.60 108.07
  A 0.55 0.55 -85.8 0 0 164.01 108.58
  Q 161.59 142.62 163.71 176.50"
/>
<path stroke="#9da3ac" vector-effect="non-scaling-stroke" d="
  M 449.29 176.75
  L 447.79 195.00"
/>
<path stroke="#92cdb5" vector-effect="non-scaling-stroke" d="
  M 447.79 195.00
  C 437.27 282.19 399.75 368.87 307.24 394.93
  A 1.78 1.72 44.0 0 1 306.27 394.93
  Q 263.40 383.09 231.79 352.00"
/>
<path stroke="#a7dec8" vector-effect="non-scaling-stroke" d="
  M 231.79 352.00
  C 189.98 309.31 173.47 253.95 165.46 195.75"
/>
<path stroke="#878789" vector-effect="non-scaling-stroke" d="
  M 165.46 195.75
  L 163.71 176.50"
/>
<path stroke="#2f6651" vector-effect="non-scaling-stroke" d="
  M 165.46 195.75
  L 164.25 194.96"
/>
<path stroke="#28a975" vector-effect="non-scaling-stroke" d="
  M 448.79 195.00
  L 448.48 196.26
  A 0.72 0.51 17.9 0 0 448.97 196.92
  C 452.94 198.41 453.50 201.39 453.05 205.47
  C 443.60 290.73 404.01 375.65 315.20 401.81
  C 312.24 402.68 310.18 402.09 307.41 401.14
  C 295.16 396.96 280.76 391.88 270.75 384.37
  Q 266.20 380.96 260.57 379.69"
/>
<path stroke="#3aac7e" vector-effect="non-scaling-stroke" d="
  M 260.57 379.69
  C 251.66 370.51 241.09 362.18 232.18 353.79
  A 1.29 0.75 32.7 0 1 231.75 352.95
  L 231.79 352.00"
/>
<path stroke="#252b35" vector-effect="non-scaling-stroke" d="
  M 162.75 176.79
  Q 163.15 177.67 163.19 179.31
  Q 163.31 185.12 164.25 194.96"
/>
<path stroke="#458274" vector-effect="non-scaling-stroke" d="
  M 164.25 194.96
  L 130.98 194.99
  A 0.47 0.47 0.0 0 0 130.51 195.46
  L 130.53 423.46
  A 0.50 0.50 0.0 0 0 131.03 423.96
  L 303.50 423.96"
/>
<path stroke="#337e6c" vector-effect="non-scaling-stroke" d="
  M 303.50 423.96
  L 481.54 423.98
  A 1.45 1.44 -0.0 0 0 482.99 422.54
  L 482.86 229.82"
/>
<path stroke="#458274" vector-effect="non-scaling-stroke" d="
  M 482.86 229.82
  L 482.81 195.69
  A 0.50 0.49 90.0 0 0 482.32 195.19
  L 453.75 195.04"
/>
<path stroke="#337e6c" vector-effect="non-scaling-stroke" d="
  M 453.75 195.04
  L 448.79 195.00"
/>
<path stroke="#307162" vector-effect="non-scaling-stroke" d="
  M 448.79 195.00
  L 447.79 195.00"
/>
<path stroke="#8b919a" vector-effect="non-scaling-stroke" d="
  M 501.96 434.75
  Q 497.22 431.16 491.43 431.06
  Q 471.53 430.71 447.96 431.26"
/>
<path stroke="#2e3842" vector-effect="non-scaling-stroke" d="
  M 447.96 431.26
  Q 403.73 431.71 359.50 431.50
  C 294.26 431.18 229.03 431.43 163.79 431.25"
/>
<path stroke="#8b919a" vector-effect="non-scaling-stroke" d="
  M 163.79 431.25
  Q 143.15 430.81 122.50 431.01
  Q 116.35 431.06 110.50 434.08"
/>
<path stroke="#3dba88" vector-effect="non-scaling-stroke" d="
  M 453.75 195.04
  C 453.24 198.72 453.39 201.31 456.24 204.08
  Q 469.51 216.99 482.86 229.82"
/>
<path stroke="#3dba88" vector-effect="non-scaling-stroke" d="
  M 303.50 423.96
  Q 304.26 423.45 304.00 422.64
  A 0.97 0.71 -0.1 0 0 303.28 422.12
  C 300.19 421.59 297.23 417.08 295.14 415.02
  Q 277.54 397.70 260.57 379.69"
/>
<path stroke="#ededed" vector-effect="non-scaling-stroke" d="
  M 547.71 534.12
  C 487.22 534.33 426.74 533.97 366.25 533.93"
/>
<path stroke="#acacac" vector-effect="non-scaling-stroke" d="
  M 366.25 533.93
  Q 366.10 532.18 364.50 532.17
  C 325.62 531.80 286.70 532.24 247.82 532.26
  Q 246.40 532.26 246.25 533.90"
/>
<path stroke="#ededed" vector-effect="non-scaling-stroke" d="
  M 246.25 533.90
  Q 232.72 534.00 219.19 534.05
  Q 141.74 534.32 64.29 534.17"
/>
<path stroke="#7f8283" vector-effect="non-scaling-stroke" d="
  M 163.79 431.25
  Q 163.05 432.55 163.23 434.01
  A 0.59 0.55 -2.7 0 0 163.81 434.50
  L 448.63 434.50
  A 0.56 0.53 -12.3 0 0 449.15 433.74
  L 447.96 431.26"
/>
<path stroke="#bebebe" vector-effect="non-scaling-stroke" d="
  M 366.25 533.93
  L 246.25 533.90"
/>
<path stroke="#83daf3" vector-effect="non-scaling-stroke" d="
  M 204.22 134.37
  L 189.93 135.18
  A 0.87 0.85 -1.1 0 0 189.10 136.02
  C 188.24 223.12 210.61 334.13 305.76 367.03
  A 2.63 2.63 44.7 0 0 307.46 367.03
  Q 349.10 352.65 375.79 317.50"
/>
<path stroke="#aae4f6" vector-effect="non-scaling-stroke" d="
  M 375.79 317.50
  C 398.19 289.86 410.65 252.02 417.09 217.56
  Q 424.66 177.07 423.93 135.79
  A 0.54 0.53 -89.4 0 0 423.42 135.26
  Q 359.86 132.57 307.12 97.17
  A 0.75 0.75 45.0 0 0 306.30 97.17
  Q 259.84 128.09 204.22 134.37"
/>
<path stroke="#2dbfea" vector-effect="non-scaling-stroke" d="
  M 375.79 317.50
  C 374.89 316.26 368.64 306.21 368.25 306.21"
/>
<path stroke="#58c9ed" vector-effect="non-scaling-stroke" d="
  M 368.25 306.21
  L 368.96 305.25"
/>
<path stroke="#6eceed" vector-effect="non-scaling-stroke" d="
  M 368.96 305.25
  C 401.04 261.74 410.75 201.29 410.08 148.22
  A 0.54 0.53 1.7 0 0 409.57 147.69
  Q 354.36 144.68 308.19 114.55
  A 0.40 0.39 -70.2 0 0 307.58 114.84
  Q 306.22 126.48 308.14 137.95"
/>
<path stroke="#aae4f6" vector-effect="non-scaling-stroke" d="
  M 308.14 137.95
  C 283.33 136.71 263.84 155.10 261.46 179.50"
/>
<path stroke="#2dbfea" vector-effect="non-scaling-stroke" d="
  M 261.46 179.50
  Q 260.85 179.97 259.98 180.03
  A 1.33 1.03 57.8 0 1 259.10 179.71
  Q 233.56 157.60 206.69 137.14
  C 205.77 136.45 204.91 135.31 204.22 134.37"
/>
<path stroke="#bad6e0" vector-effect="non-scaling-stroke" d="
  M 342.21 155.25
  C 352.00 167.88 352.31 182.60 351.25 197.96"
/>
<path stroke="#ffe59c" vector-effect="non-scaling-stroke" d="
  M 351.25 197.96
  L 337.04 197.75"
/>
<path stroke="#c3e9f6" vector-effect="non-scaling-stroke" d="
  M 337.04 197.75
  C 337.74 186.02 338.34 172.74 330.30 163.54"
/>
<path stroke="#bad6e0" vector-effect="non-scaling-stroke" d="
  M 330.30 163.54
  Q 321.66 153.07 308.00 152.29"
/>
<path stroke="#a8d2df" vector-effect="non-scaling-stroke" d="
  M 308.00 152.29
  C 293.82 151.93 280.91 160.33 277.05 174.00
  C 275.15 180.72 276.14 190.21 275.75 197.96"
/>
<path stroke="#ffe59c" vector-effect="non-scaling-stroke" d="
  M 275.75 197.96
  L 261.28 198.02"
/>
<path stroke="#83daf3" vector-effect="non-scaling-stroke" d="
  M 261.46 179.50
  L 261.28 198.02"
/>
<path stroke="#82bf90" vector-effect="non-scaling-stroke" d="
  M 261.28 198.02
  Q 253.38 196.21 249.71 201.70
  Q 248.49 203.52 248.49 206.60
  C 248.50 231.52 249.22 256.76 248.18 281.65
  C 247.93 287.70 247.87 295.59 255.50 296.04"
/>
<path stroke="#13a4d0" vector-effect="non-scaling-stroke" d="
  M 255.50 296.04
  C 254.08 301.26 261.82 301.76 265.57 301.80
  Q 286.38 302.04 307.21 302.00"
/>
<path stroke="#2cacd2" vector-effect="non-scaling-stroke" d="
  M 307.21 302.00
  L 307.29 302.25"
/>
<path stroke="#31bee9" vector-effect="non-scaling-stroke" d="
  M 307.29 302.25
  L 307.31 350.19
  A 0.36 0.35 -9.9 0 0 307.79 350.52
  Q 344.83 337.63 368.25 306.21"
/>
<path stroke="#72ceed" vector-effect="non-scaling-stroke" d="
  M 368.96 305.25
  Q 366.93 304.03 365.71 302.00"
/>
<path stroke="#7ec0d7" vector-effect="non-scaling-stroke" d="
  M 365.71 302.00
  Q 370.44 299.83 370.45 294.43
  Q 370.54 256.59 370.46 218.75
  C 370.44 212.26 370.91 205.45 364.29 204.50"
/>
<path stroke="#c3cf93" vector-effect="non-scaling-stroke" d="
  M 364.29 204.50
  Q 363.20 198.67 357.25 197.96"
/>
<path stroke="#7ec0d7" vector-effect="non-scaling-stroke" d="
  M 357.25 197.96
  Q 359.75 177.39 347.86 160.91
  C 347.29 160.12 343.33 153.14 342.21 155.25"
/>
<path stroke="#c3e9f6" vector-effect="non-scaling-stroke" d="
  M 342.21 155.25
  Q 329.28 139.02 308.14 137.95"
/>
<path stroke="#c3cf93" vector-effect="non-scaling-stroke" d="
  M 337.04 197.75
  L 307.38 197.95"
/>
<path stroke="#6eceed" vector-effect="non-scaling-stroke" d="
  M 307.38 197.95
  L 307.21 158.75"
/>
<path stroke="#b9bc7d" vector-effect="non-scaling-stroke" d="
  M 357.25 197.96
  L 351.25 197.96"
/>
<path stroke="#b9bc7d" vector-effect="non-scaling-stroke" d="
  M 364.29 204.50
  C 364.86 231.81 364.40 259.76 364.48 286.49
  Q 364.50 291.28 361.57 295.40"
/>
<path stroke="#a8b77c" vector-effect="non-scaling-stroke" d="
  M 361.57 295.40
  Q 334.75 296.41 308.00 296.04"
/>
<path stroke="#8faf7a" vector-effect="non-scaling-stroke" d="
  M 308.00 296.04
  L 255.50 296.04"
/>
<path stroke="#7ec0d7" vector-effect="non-scaling-stroke" d="
  M 330.30 163.54
  C 322.90 158.60 316.10 157.29 307.29 158.50"
/>
<path stroke="#63a9c0" vector-effect="non-scaling-stroke" d="
  M 308.00 152.29
  Q 306.76 155.31 307.29 158.50"
/>
<path stroke="#6cbcd6" vector-effect="non-scaling-stroke" d="
  M 307.29 158.50
  L 307.21 158.75"
/>
<path stroke="#53b7d6" vector-effect="non-scaling-stroke" d="
  M 307.21 158.75
  Q 291.49 161.54 284.63 175.94
  C 281.36 182.79 281.85 189.57 282.00 197.96"
/>
<path stroke="#a8b77c" vector-effect="non-scaling-stroke" d="
  M 282.00 197.96
  L 275.75 197.96"
/>
<path stroke="#57b6d5" vector-effect="non-scaling-stroke" d="
  M 365.50 301.96
  L 307.29 302.25"
/>
<path stroke="#389cbc" vector-effect="non-scaling-stroke" d="
  M 307.21 302.00
  L 308.00 296.04"
/>
<path stroke="#68bbd7" vector-effect="non-scaling-stroke" d="
  M 365.71 302.00
  L 365.50 301.96"
/>
<path stroke="#63a9c0" vector-effect="non-scaling-stroke" d="
  M 365.50 301.96
  L 361.57 295.40"
/>
<path stroke="#a9ca93" vector-effect="non-scaling-stroke" d="
  M 307.38 197.95
  L 282.00 197.96"
/>
<path stroke="#ffe59c" vector-effect="non-scaling-stroke" d="
  M 355.73 213.59
  A 4.10 4.10 0.0 0 0 351.63 209.49
  L 351.35 209.49
  A 4.10 4.10 0.0 0 0 347.25 213.59
  L 347.25 245.11
  A 4.10 4.10 0.0 0 0 351.35 249.21
  L 351.63 249.21
  A 4.10 4.10 0.0 0 0 355.73 245.11
  L 355.73 213.59"
/>
<path stroke="#e5ac31" vector-effect="non-scaling-stroke" d="
  M 301.68 274.54
  L 311.19 274.59
  A 0.91 0.83 -89.7 0 0 312.03 273.68
  L 312.10 253.89
  A 0.82 0.77 -13.3 0 1 312.57 253.18
  C 321.63 248.94 325.19 239.26 320.30 230.47
  C 314.91 220.79 300.58 219.57 293.72 228.68
  C 287.25 237.28 290.65 248.23 300.22 253.08
  A 1.39 1.37 -76.9 0 1 300.98 254.32
  L 300.99 273.78
  A 0.77 0.70 90.0 0 0 301.68 274.54"
/>
<path stroke="#ffe59c" vector-effect="non-scaling-stroke" d="
  M 355.7421 261.8174
  A 4.05 4.05 0.0 0 0 351.6992 257.7603
  L 351.3392 257.7597
  A 4.05 4.05 0.0 0 0 347.2821 261.8026
  L 347.2579 275.7026
  A 4.05 4.05 0.0 0 0 351.3008 279.7597
  L 351.6608 279.7603
  A 4.05 4.05 0.0 0 0 355.7179 275.7174
  L 355.7421 261.8174"
/>
<path stroke="#cccdcf" vector-effect="non-scaling-stroke" d="
  M 138.76 440.11
  L 115.94 496.99
  A 1.40 1.39 -78.8 0 0 117.22 498.91
  C 180.21 498.93 243.54 498.41 306.69 499.02
  C 324.09 499.19 341.89 498.90 359.50 499.10"
/>
<path stroke="#bebebe" vector-effect="non-scaling-stroke" d="
  M 359.50 499.10
  L 381.50 498.79"
/>
<path stroke="#cccdcf" vector-effect="non-scaling-stroke" d="
  M 381.50 498.79
  L 393.25 498.96"
/>
<path stroke="#bebebe" vector-effect="non-scaling-stroke" d="
  M 393.25 498.96
  L 409.00 498.71"
/>
<path stroke="#cccdcf" vector-effect="non-scaling-stroke" d="
  M 409.00 498.71
  Q 414.30 499.66 419.44 498.40"
/>
<path stroke="#bebebe" vector-effect="non-scaling-stroke" d="
  M 419.44 498.40
  Q 427.22 499.32 435.10 498.33"
/>
<path stroke="#cccdcf" vector-effect="non-scaling-stroke" d="
  M 435.10 498.33
  Q 437.54 499.69 440.25 498.71"
/>
<path stroke="#bebebe" vector-effect="non-scaling-stroke" d="
  M 440.25 498.71
  Q 450.55 499.12 461.04 498.30"
/>
<path stroke="#cccdcf" vector-effect="non-scaling-stroke" d="
  M 461.04 498.30
  Q 463.44 500.00 465.96 498.40"
/>
<path stroke="#bebebe" vector-effect="non-scaling-stroke" d="
  M 465.96 498.40
  L 478.00 498.71"
/>
<path stroke="#cccdcf" vector-effect="non-scaling-stroke" d="
  M 478.00 498.71
  Q 485.98 499.39 495.38 498.78
  A 1.04 1.02 77.2 0 0 496.26 497.36
  L 473.68 440.60"
/>
<path stroke="#b3b6b6" vector-effect="non-scaling-stroke" d="
  M 473.68 440.60
  Q 472.23 438.26 467.94 438.26
  Q 307.43 438.24 146.93 438.25
  Q 146.83 438.25 144.59 438.11
  Q 141.28 437.89 138.76 440.11"
/>
<path stroke="#a3a8a9" vector-effect="non-scaling-stroke" d="
  M 473.68 440.60
  C 368.30 439.85 262.82 440.16 157.41 440.44
  C 152.09 440.46 145.08 439.91 138.76 440.11"
/>
<path stroke="#aeb0b1" vector-effect="non-scaling-stroke" d="
  M 478.00 498.71
  Q 478.50 498.47 478.53 498.05
  A 0.65 0.49 5.8 0 0 477.94 497.50
  Q 471.84 496.91 465.96 498.40"
/>
<path stroke="#aeb0b1" vector-effect="non-scaling-stroke" d="
  M 461.04 498.30
  Q 453.38 497.10 442.07 497.59
  Q 440.39 497.67 440.25 498.71"
/>
<path stroke="#aeb0b1" vector-effect="non-scaling-stroke" d="
  M 435.10 498.33
  Q 427.23 496.23 419.44 498.40"
/>
<path stroke="#aeb0b1" vector-effect="non-scaling-stroke" d="
  M 409.00 498.71
  Q 409.49 498.36 409.46 497.96
  A 0.70 0.49 -1.2 0 0 408.77 497.50
  L 393.81 497.51
  A 0.55 0.50 -0.0 0 0 393.26 498.01
  L 393.25 498.96"
/>
<path stroke="#aeb0b1" vector-effect="non-scaling-stroke" d="
  M 381.50 498.79
  Q 383.40 497.81 381.43 497.76
  Q 370.84 497.45 360.25 497.61
  Q 358.67 497.63 359.50 499.10"
/>
<path stroke="#c9c9cb" vector-effect="non-scaling-stroke" d="
  M 250.07 505.60
  Q 248.68 514.38 247.66 522.45
  C 247.42 524.36 245.96 526.96 249.56 526.97
  Q 285.39 527.13 321.28 526.91"
/>
<path stroke="#d0d1d1" vector-effect="non-scaling-stroke" d="
  M 321.28 526.91
  L 363.45 526.92
  A 1.37 1.33 -3.6 0 0 364.82 525.41
  L 361.99 505.27"
/>
<path stroke="#bebebe" vector-effect="non-scaling-stroke" d="
  M 361.99 505.27
  Q 362.24 504.78 361.46 504.26
  C 360.22 503.45 355.52 503.78 353.93 503.77
  Q 304.91 503.32 255.89 503.81
  Q 255.78 503.81 253.63 503.67
  Q 250.83 503.50 250.07 505.60"
/>
<path stroke="#b3b4b3" vector-effect="non-scaling-stroke" d="
  M 361.99 505.27
  L 279.25 505.04"
/>
<path stroke="#abacad" vector-effect="non-scaling-stroke" d="
  M 279.25 505.04
  Q 264.65 504.52 250.07 505.60"
/>
<path stroke="#bebfc0" vector-effect="non-scaling-stroke" d="
  M 279.25 505.04
  Q 279.15 505.57 279.31 506.07
  A 1.30 0.97 9.3 0 0 279.96 506.74
  Q 298.76 515.66 317.45 524.79
  Q 320.16 526.12 321.28 526.91"
/>
<path stroke="#727479" vector-effect="non-scaling-stroke" d="
  M 148.03 443.81
  Q 147.09 445.09 147.20 446.49
  A 0.59 0.53 -2.1 0 0 147.78 446.98
  Q 155.88 447.03 164.01 446.93
  Q 167.53 446.89 167.24 443.52
  A 0.56 0.54 -2.2 0 0 166.68 443.02
  L 149.60 443.02
  A 1.97 1.95 -71.5 0 0 148.03 443.81"
/>
<path stroke="#727479" vector-effect="non-scaling-stroke" d="
  M 175.05 443.61
  Q 174.12 445.10 174.31 446.43
  A 0.62 0.59 -4.3 0 0 174.92 446.93
  L 192.76 446.86
  A 0.91 0.89 15.0 0 0 193.54 446.42
  Q 194.30 445.10 194.23 443.52
  A 0.54 0.52 -1.1 0 0 193.69 443.02
  L 176.09 443.03
  A 1.23 1.22 -74.0 0 0 175.05 443.61"
/>
<path stroke="#727479" vector-effect="non-scaling-stroke" d="
  M 202.18 443.44
  L 201.31 446.44
  A 0.49 0.41 6.5 0 0 201.81 446.96
  L 220.02 446.86
  A 0.81 0.79 11.9 0 0 220.75 446.40
  Q 221.40 445.03 221.09 443.51
  A 0.64 0.60 -4.9 0 0 220.47 443.02
  L 202.84 443.03
  A 0.72 0.56 6.2 0 0 202.18 443.44"
/>
<path stroke="#727479" vector-effect="non-scaling-stroke" d="
  M 248.1070 443.2630
  A 0.27 0.27 0.0 0 0 247.8365 442.9935
  L 228.8965 443.0265
  A 0.27 0.27 0.0 0 0 228.6270 443.2970
  L 228.6330 446.7370
  A 0.27 0.27 0.0 0 0 228.9035 447.0065
  L 247.8435 446.9735
  A 0.27 0.27 0.0 0 0 248.1130 446.7030
  L 248.1070 443.2630"
/>
<path stroke="#727479" vector-effect="non-scaling-stroke" d="
  M 275.2363 443.9158
  A 0.94 0.94 0.0 0 0 274.2930 442.9791
  L 256.5531 443.0410
  A 0.94 0.94 0.0 0 0 255.6164 443.9842
  L 255.6237 446.0842
  A 0.94 0.94 0.0 0 0 256.5670 447.0209
  L 274.3069 446.9590
  A 0.94 0.94 0.0 0 0 275.2436 446.0158
  L 275.2363 443.9158"
/>
<path stroke="#727479" vector-effect="non-scaling-stroke" d="
  M 302.2280 443.8530
  A 0.87 0.87 0.0 0 0 301.3565 442.9845
  L 283.5965 443.0155
  A 0.87 0.87 0.0 0 0 282.7280 443.8870
  L 282.7320 446.1470
  A 0.87 0.87 0.0 0 0 283.6035 447.0155
  L 301.3635 446.9845
  A 0.87 0.87 0.0 0 0 302.2320 446.1130
  L 302.2280 443.8530"
/>
<path stroke="#727479" vector-effect="non-scaling-stroke" d="
  M 329.26 443.76
  A 0.75 0.75 0.0 0 0 328.51 443.01
  L 310.51 443.01
  A 0.75 0.75 0.0 0 0 309.76 443.76
  L 309.76 446.26
  A 0.75 0.75 0.0 0 0 310.51 447.01
  L 328.51 447.01
  A 0.75 0.75 0.0 0 0 329.26 446.26
  L 329.26 443.76"
/>
<path stroke="#727479" vector-effect="non-scaling-stroke" d="
  M 356.36 443.69
  A 0.68 0.68 0.0 0 0 355.68 443.01
  L 337.60 443.01
  A 0.68 0.68 0.0 0 0 336.92 443.69
  L 336.92 446.31
  A 0.68 0.68 0.0 0 0 337.60 446.99
  L 355.68 446.99
  A 0.68 0.68 0.0 0 0 356.36 446.31
  L 356.36 443.69"
/>
<path stroke="#727479" vector-effect="non-scaling-stroke" d="
  M 383.3822 443.7670
  A 0.74 0.74 0.0 0 0 382.6435 443.0257
  L 364.6035 442.9943
  A 0.74 0.74 0.0 0 0 363.8622 443.7330
  L 363.8578 446.2330
  A 0.74 0.74 0.0 0 0 364.5965 446.9743
  L 382.6365 447.0057
  A 0.74 0.74 0.0 0 0 383.3778 446.2670
  L 383.3822 443.7670"
/>
<path stroke="#727479" vector-effect="non-scaling-stroke" d="
  M 410.4559 443.3240
  A 0.26 0.26 0.0 0 0 410.1968 443.0631
  L 391.2169 442.9969
  A 0.26 0.26 0.0 0 0 390.9560 443.2560
  L 390.9441 446.6760
  A 0.26 0.26 0.0 0 0 391.2032 446.9369
  L 410.1831 447.0031
  A 0.26 0.26 0.0 0 0 410.4440 446.7440
  L 410.4559 443.3240"
/>
<path stroke="#727479" vector-effect="non-scaling-stroke" d="
  M 420.82 446.87
  Q 429.05 447.19 437.33 446.91
  A 0.53 0.50 -2.2 0 0 437.84 446.39
  Q 437.77 444.86 436.88 443.47
  A 0.96 0.91 -15.6 0 0 436.09 443.05
  L 418.20 443.06
  A 0.51 0.50 -0.6 0 0 417.69 443.57
  C 417.73 445.86 418.40 446.78 420.82 446.87"
/>
<path stroke="#727479" vector-effect="non-scaling-stroke" d="
  M 448.12 446.87
  Q 456.20 447.18 464.35 446.91
  A 0.53 0.53 -5.0 0 0 464.87 446.39
  Q 464.87 444.60 463.63 443.32
  A 1.29 1.08 -18.5 0 0 462.76 442.98
  L 445.24 442.97
  A 0.54 0.52 1.1 0 0 444.70 443.47
  C 444.56 446.03 445.64 446.78 448.12 446.87"
/>
<path stroke="#77797f" vector-effect="non-scaling-stroke" d="
  M 143.91 456.71
  Q 153.57 457.33 161.71 456.69
  A 1.07 1.06 -83.3 0 0 162.63 455.96
  L 164.44 450.62
  A 0.66 0.65 -83.4 0 0 163.77 449.76
  C 157.90 450.30 151.99 449.25 146.26 450.18
  A 0.92 0.84 5.1 0 0 145.56 450.71
  L 143.42 455.99
  A 0.55 0.52 12.0 0 0 143.91 456.71"
/>
<path stroke="#77797f" vector-effect="non-scaling-stroke" d="
  M 168.78 456.72
  Q 178.06 457.33 186.11 456.70
  A 0.83 0.70 5.4 0 0 186.81 456.21
  L 188.59 450.63
  A 0.44 0.42 8.6 0 0 188.16 450.08
  L 170.78 449.98
  A 0.81 0.66 8.0 0 0 170.05 450.42
  L 168.12 455.80
  A 0.74 0.68 11.5 0 0 168.78 456.72"
/>
<path stroke="#77797f" vector-effect="non-scaling-stroke" d="
  M 192.97 456.70
  C 198.78 457.09 204.63 457.17 210.49 456.80
  A 0.85 0.84 10.4 0 0 211.21 456.31
  Q 212.45 453.57 212.57 450.43
  A 0.49 0.48 1.1 0 0 212.08 449.93
  L 194.70 450.07
  A 0.78 0.61 5.1 0 0 193.99 450.53
  L 192.51 456.18
  A 0.49 0.41 8.5 0 0 192.97 456.70"
/>
<path stroke="#77797f" vector-effect="non-scaling-stroke" d="
  M 217.93 456.83
  L 234.99 456.81
  A 0.77 0.73 -78.8 0 0 235.68 456.32
  Q 236.80 453.56 236.83 450.42
  A 0.51 0.50 90.0 0 0 236.33 449.91
  L 218.73 450.09
  A 0.79 0.79 -79.0 0 0 218.02 450.57
  Q 216.83 453.45 217.34 456.32
  A 0.61 0.58 84.3 0 0 217.93 456.83"
/>
<path stroke="#77797f" vector-effect="non-scaling-stroke" d="
  M 309.4008 450.9666
  A 0.94 0.94 0.0 0 0 308.4724 450.0152
  L 291.2936 449.8053
  A 0.94 0.94 0.0 0 0 290.3422 450.7338
  L 290.2792 455.8934
  A 0.94 0.94 0.0 0 0 291.2076 456.8448
  L 308.3864 457.0547
  A 0.94 0.94 0.0 0 0 309.3378 456.1262
  L 309.4008 450.9666"
/>
<path stroke="#77797f" vector-effect="non-scaling-stroke" d="
  M 333.8154 450.8133
  A 0.88 0.88 0.0 0 0 332.9339 449.9349
  L 315.5939 449.9651
  A 0.88 0.88 0.0 0 0 314.7154 450.8467
  L 314.7246 456.0867
  A 0.88 0.88 0.0 0 0 315.6061 456.9651
  L 332.9461 456.9349
  A 0.88 0.88 0.0 0 0 333.8246 456.0533
  L 333.8154 450.8133"
/>
<path stroke="#77797f" vector-effect="non-scaling-stroke" d="
  M 358.0548 450.5002
  A 0.62 0.62 0.0 0 0 357.4316 449.8834
  L 339.6318 449.9766
  A 0.62 0.62 0.0 0 0 339.0151 450.5999
  L 339.0452 456.3398
  A 0.62 0.62 0.0 0 0 339.6684 456.9566
  L 357.4682 456.8634
  A 0.62 0.62 0.0 0 0 358.0849 456.2401
  L 358.0548 450.5002"
/>
<path stroke="#77797f" vector-effect="non-scaling-stroke" d="
  M 382.4247 450.7267
  A 0.80 0.80 0.0 0 0 381.6261 449.9253
  L 364.0461 449.8947
  A 0.80 0.80 0.0 0 0 363.2447 450.6933
  L 363.2353 456.0933
  A 0.80 0.80 0.0 0 0 364.0339 456.8947
  L 381.6139 456.9253
  A 0.80 0.80 0.0 0 0 382.4153 456.1267
  L 382.4247 450.7267"
/>
<path stroke="#77797f" vector-effect="non-scaling-stroke" d="
  M 413.75 456.74
  C 420.09 456.68 425.52 457.35 431.46 456.77
  A 0.44 0.42 -10.4 0 0 431.85 456.23
  L 430.10 450.48
  A 0.71 0.66 -7.6 0 0 429.43 450.01
  L 411.89 449.90
  A 0.48 0.48 88.9 0 0 411.41 450.40
  Q 411.56 453.55 413.00 456.30
  A 0.83 0.83 -14.6 0 0 413.75 456.74"
/>
<path stroke="#77797f" vector-effect="non-scaling-stroke" d="
  M 437.87 456.79
  L 468.21 456.91
  A 0.50 0.50 -10.7 0 0 468.68 456.23
  L 466.51 450.78
  A 1.34 1.30 -10.8 0 0 465.26 449.96
  L 434.80 450.02
  A 0.39 0.36 -9.3 0 0 434.43 450.50
  L 436.02 455.46
  A 1.97 1.93 -8.6 0 0 437.87 456.79"
/>
<path stroke="#77797f" vector-effect="non-scaling-stroke" d="
  M 260.80 450.28
  A 0.27 0.27 0.0 0 0 260.53 450.01
  L 241.93 450.01
  A 0.27 0.27 0.0 0 0 241.66 450.28
  L 241.66 456.68
  A 0.27 0.27 0.0 0 0 241.93 456.95
  L 260.53 456.95
  A 0.27 0.27 0.0 0 0 260.80 456.68
  L 260.80 450.28"
/>
<path stroke="#77797f" vector-effect="non-scaling-stroke" d="
  M 285.0653 450.4566
  A 0.44 0.44 0.0 0 0 284.6261 450.0159
  L 266.4661 449.9842
  A 0.44 0.44 0.0 0 0 266.0253 450.4234
  L 266.0147 456.5034
  A 0.44 0.44 0.0 0 0 266.4539 456.9441
  L 284.6139 456.9758
  A 0.44 0.44 0.0 0 0 285.0547 456.5366
  L 285.0653 450.4566"
/>
<path stroke="#77797f" vector-effect="non-scaling-stroke" d="
  M 389.53 456.71
  L 406.44 456.83
  A 0.83 0.82 -7.0 0 0 407.25 455.80
  L 405.85 450.49
  A 0.71 0.62 -6.2 0 0 405.18 450.02
  L 387.54 450.03
  A 0.43 0.42 -5.5 0 0 387.12 450.53
  L 388.12 455.55
  A 1.45 1.44 -5.4 0 0 389.53 456.71"
/>
<path stroke="#77797f" vector-effect="non-scaling-stroke" d="
  M 144.01 466.60
  Q 157.49 467.03 171.03 466.49
  A 0.88 0.86 12.2 0 0 171.77 466.03
  Q 173.17 463.32 173.56 460.07
  A 0.45 0.44 -86.6 0 0 173.12 459.57
  L 144.69 459.41
  Q 142.32 459.40 141.68 461.09
  L 139.85 465.99
  A 0.45 0.43 14.1 0 0 140.22 466.57
  C 141.39 466.74 143.32 466.58 144.01 466.60"
/>
<path stroke="#77797f" vector-effect="non-scaling-stroke" d="
  M 177.92 466.56
  Q 187.06 467.01 196.20 466.41
  A 0.73 0.70 6.2 0 0 196.85 465.91
  L 198.26 461.10
  A 1.37 1.29 7.8 0 0 196.92 459.45
  L 181.01 459.42
  A 2.29 2.18 7.5 0 0 178.83 461.01
  L 177.42 465.87
  A 0.54 0.54 9.2 0 0 177.92 466.56"
/>
<path stroke="#77797f" vector-effect="non-scaling-stroke" d="
  M 203.00 466.46
  C 209.84 466.50 215.53 466.90 221.44 466.43
  A 0.67 0.64 2.7 0 0 222.04 465.91
  L 223.07 460.49
  A 0.90 0.89 3.5 0 0 222.13 459.44
  Q 214.12 459.94 205.89 459.41
  A 2.15 1.87 7.5 0 0 203.70 460.86
  L 202.57 465.97
  A 0.43 0.40 5.9 0 0 203.00 466.46"
/>
<path stroke="#77797f" vector-effect="non-scaling-stroke" d="
  M 228.01 466.46
  C 234.14 466.54 240.20 466.67 246.35 466.42
  A 0.61 0.61 3.4 0 0 246.93 465.91
  L 247.77 461.07
  A 1.52 1.39 4.5 0 0 246.25 459.44
  L 230.88 459.41
  Q 228.45 459.41 228.18 461.40
  L 227.55 465.96
  A 0.47 0.45 3.9 0 0 228.01 466.46"
/>
<path stroke="#77797f" vector-effect="non-scaling-stroke" d="
  M 272.3363 460.4388
  A 0.97 0.97 0.0 0 0 271.3612 459.4739
  L 253.7214 459.5662
  A 0.97 0.97 0.0 0 0 252.7565 460.5413
  L 252.7837 465.7412
  A 0.97 0.97 0.0 0 0 253.7588 466.7061
  L 271.3986 466.6138
  A 0.97 0.97 0.0 0 0 272.3635 465.6387
  L 272.3363 460.4388"
/>
<path stroke="#77797f" vector-effect="non-scaling-stroke" d="
  M 297.1062 460.4694
  A 0.99 0.99 0.0 0 0 296.1110 459.4845
  L 278.7313 459.5755
  A 0.99 0.99 0.0 0 0 277.7465 460.5707
  L 277.7738 465.7906
  A 0.99 0.99 0.0 0 0 278.7690 466.7755
  L 296.1487 466.6845
  A 0.99 0.99 0.0 0 0 297.1335 465.6893
  L 297.1062 460.4694"
/>
<path stroke="#77797f" vector-effect="non-scaling-stroke" d="
  M 322.0092 460.4641
  A 0.92 0.92 0.0 0 0 321.0924 459.5408
  L 303.4326 459.4792
  A 0.92 0.92 0.0 0 0 302.5093 460.3960
  L 302.4908 465.7159
  A 0.92 0.92 0.0 0 0 303.4076 466.6392
  L 321.0674 466.7008
  A 0.92 0.92 0.0 0 0 321.9907 465.7840
  L 322.0092 460.4641"
/>
<path stroke="#77797f" vector-effect="non-scaling-stroke" d="
  M 347.00 460.60
  A 1.05 1.05 0.0 0 0 345.95 459.55
  L 328.39 459.55
  A 1.05 1.05 0.0 0 0 327.34 460.60
  L 327.34 465.64
  A 1.05 1.05 0.0 0 0 328.39 466.69
  L 345.95 466.69
  A 1.05 1.05 0.0 0 0 347.00 465.64
  L 347.00 460.60"
/>
<path stroke="#77797f" vector-effect="non-scaling-stroke" d="
  M 371.7327 459.7789
  A 0.26 0.26 0.0 0 0 371.4713 459.5203
  L 352.4516 459.6198
  A 0.26 0.26 0.0 0 0 352.1930 459.8812
  L 352.2273 466.4411
  A 0.26 0.26 0.0 0 0 352.4887 466.6997
  L 371.5084 466.6002
  A 0.26 0.26 0.0 0 0 371.7670 466.3388
  L 371.7327 459.7789"
/>
<path stroke="#77797f" vector-effect="non-scaling-stroke" d="
  M 378.11 466.16
  A 1.07 1.06 76.0 0 0 379.05 466.73
  L 396.38 466.75
  A 0.79 0.77 -6.2 0 0 397.15 465.81
  L 395.91 460.12
  A 0.66 0.63 -6.0 0 0 395.27 459.63
  L 377.17 459.62
  A 0.48 0.48 -89.4 0 0 376.69 460.09
  Q 376.60 463.37 378.11 466.16"
/>
<path stroke="#77797f" vector-effect="non-scaling-stroke" d="
  M 403.72 466.58
  L 421.72 466.46
  A 0.43 0.39 -7.2 0 0 422.14 465.96
  L 420.49 460.05
  A 0.73 0.63 -6.8 0 0 419.81 459.59
  L 401.91 459.59
  A 0.47 0.41 -5.8 0 0 401.44 460.09
  L 402.76 465.95
  A 1.02 0.81 -5.2 0 0 403.72 466.58"
/>
<path stroke="#77797f" vector-effect="non-scaling-stroke" d="
  M 429.18 466.53
  L 444.00 466.41
  Q 444.45 466.41 444.95 466.62
  Q 445.92 467.03 446.88 466.53
  A 0.65 0.62 67.9 0 0 447.18 465.77
  L 445.58 460.77
  A 1.96 1.77 -7.7 0 0 443.77 459.53
  L 427.19 459.52
  A 1.15 1.13 81.1 0 0 426.12 461.01
  L 427.41 465.15
  A 1.98 1.80 80.2 0 0 429.18 466.53"
/>
<path stroke="#77797f" vector-effect="non-scaling-stroke" d="
  M 453.05 466.27
  Q 462.43 467.15 471.63 466.62
  A 0.46 0.45 -6.2 0 0 472.06 466.10
  Q 471.63 463.34 469.98 460.45
  A 1.81 1.77 74.8 0 0 468.43 459.54
  L 452.06 459.52
  A 1.19 1.19 -9.9 0 0 450.94 461.11
  L 452.70 466.01
  A 0.41 0.40 -7.8 0 0 453.05 466.27"
/>
<path stroke="#77797f" vector-effect="non-scaling-stroke" d="
  M 136.42 476.31
  L 173.45 476.44
  A 0.75 0.65 7.2 0 0 174.15 475.97
  L 175.89 469.91
  A 0.43 0.39 7.2 0 0 175.47 469.41
  L 140.07 469.30
  A 2.08 1.80 9.5 0 0 138.21 470.44
  L 136.04 475.79
  A 0.40 0.38 10.4 0 0 136.42 476.31"
/>
<path stroke="#77797f" vector-effect="non-scaling-stroke" d="
  M 180.42 476.31
  L 199.22 476.26
  A 0.66 0.64 6.0 0 0 199.86 475.76
  L 201.06 470.12
  A 0.47 0.43 8.1 0 0 200.63 469.59
  Q 191.46 468.87 182.21 469.56
  A 0.80 0.64 3.5 0 0 181.52 470.05
  L 179.96 475.75
  A 0.47 0.44 7.5 0 0 180.42 476.31"
/>
<path stroke="#77797f" vector-effect="non-scaling-stroke" d="
  M 205.79 476.31
  L 224.80 476.14
  A 0.64 0.54 2.4 0 0 225.43 475.65
  L 226.13 469.89
  A 0.53 0.47 4.8 0 0 225.63 469.36
  Q 216.48 468.92 207.27 469.62
  A 0.73 0.66 3.6 0 0 206.63 470.13
  L 205.35 475.78
  A 0.45 0.43 6.2 0 0 205.79 476.31"
/>
<path stroke="#77797f" vector-effect="non-scaling-stroke" d="
  M 231.72 476.31
  L 250.33 476.19
  A 0.60 0.57 2.7 0 0 250.91 475.69
  L 251.62 470.40
  A 0.91 0.90 -86.4 0 0 250.72 469.37
  L 232.78 469.47
  A 0.67 0.61 5.2 0 0 232.13 469.96
  L 230.94 475.44
  A 0.78 0.73 5.1 0 0 231.72 476.31"
/>
<path stroke="#77797f" vector-effect="non-scaling-stroke" d="
  M 276.8696 470.1950
  A 0.68 0.68 0.0 0 0 276.1920 469.5127
  L 257.4921 469.4474
  A 0.68 0.68 0.0 0 0 256.8097 470.1250
  L 256.7904 475.6450
  A 0.68 0.68 0.0 0 0 257.4680 476.3273
  L 276.1679 476.3926
  A 0.68 0.68 0.0 0 0 276.8503 475.7150
  L 276.8696 470.1950"
/>
<path stroke="#77797f" vector-effect="non-scaling-stroke" d="
  M 302.0501 470.0148
  A 0.58 0.58 0.0 0 0 301.4721 469.4328
  L 282.6922 469.3672
  A 0.58 0.58 0.0 0 0 282.1102 469.9452
  L 282.0899 475.7452
  A 0.58 0.58 0.0 0 0 282.6679 476.3272
  L 301.4478 476.3928
  A 0.58 0.58 0.0 0 0 302.0298 475.8148
  L 302.0501 470.0148"
/>
<path stroke="#77797f" vector-effect="non-scaling-stroke" d="
  M 327.5888 469.6154
  A 0.26 0.26 0.0 0 0 327.3279 469.3563
  L 308.0080 469.4237
  A 0.26 0.26 0.0 0 0 307.7489 469.6846
  L 307.7712 476.0846
  A 0.26 0.26 0.0 0 0 308.0321 476.3437
  L 327.3520 476.2763
  A 0.26 0.26 0.0 0 0 327.6111 476.0154
  L 327.5888 469.6154"
/>
<path stroke="#77797f" vector-effect="non-scaling-stroke" d="
  M 353.0547 470.0124
  A 0.62 0.62 0.0 0 0 352.4380 469.3892
  L 333.6782 469.2909
  A 0.62 0.62 0.0 0 0 333.0550 469.9077
  L 333.0253 475.5876
  A 0.62 0.62 0.0 0 0 333.6420 476.2108
  L 352.4018 476.3091
  A 0.62 0.62 0.0 0 0 353.0250 475.6923
  L 353.0547 470.0124"
/>
<path stroke="#77797f" vector-effect="non-scaling-stroke" d="
  M 359.31 476.23
  C 365.40 476.22 372.64 477.01 378.56 476.29
  A 0.49 0.45 -10.0 0 0 378.98 475.74
  L 377.75 470.14
  A 0.69 0.65 -3.2 0 0 377.13 469.62
  Q 367.98 468.96 358.79 469.47
  A 0.54 0.48 -3.8 0 0 358.28 469.99
  L 358.72 475.74
  A 0.60 0.53 -2.1 0 0 359.31 476.23"
/>
<path stroke="#77797f" vector-effect="non-scaling-stroke" d="
  M 385.04 476.24
  L 403.77 476.51
  A 0.69 0.68 -6.1 0 0 404.46 475.67
  L 403.12 470.29
  A 1.16 1.13 -6.4 0 0 402.01 469.43
  L 384.49 469.26
  A 1.03 0.96 -4.6 0 0 383.45 470.39
  L 384.46 475.79
  A 0.60 0.54 -4.6 0 0 385.04 476.24"
/>
<path stroke="#77797f" vector-effect="non-scaling-stroke" d="
  M 410.38 476.15
  L 429.00 476.34
  A 0.90 0.88 -7.5 0 0 429.89 475.21
  L 428.55 470.74
  A 2.24 2.02 -7.4 0 0 426.45 469.29
  L 409.48 469.26
  A 0.76 0.70 -6.0 0 0 408.72 470.12
  L 410.07 475.92
  A 0.32 0.29 -5.5 0 0 410.38 476.15"
/>
<path stroke="#77797f" vector-effect="non-scaling-stroke" d="
  M 436.27 476.21
  C 449.33 476.35 462.38 476.55 475.48 476.48
  A 0.44 0.44 -4.6 0 0 475.91 475.98
  Q 475.41 472.64 473.32 469.80
  A 1.00 0.98 71.6 0 0 472.52 469.39
  L 434.45 469.35
  A 0.44 0.39 -6.9 0 0 434.01 469.85
  L 435.56 475.76
  A 0.76 0.60 -5.7 0 0 436.27 476.21"
/>
<path stroke="#77797f" vector-effect="non-scaling-stroke" d="
  M 185.33 479.19
  L 136.05 479.08
  A 1.63 1.48 9.4 0 0 134.54 480.06
  L 132.57 485.47
  A 0.38 0.35 9.7 0 0 132.93 485.95
  L 183.22 485.99
  A 0.83 0.82 -76.3 0 0 183.95 485.54
  Q 185.39 482.68 185.71 479.62
  A 0.39 0.38 -86.7 0 0 185.33 479.19"
/>
<path stroke="#77797f" vector-effect="non-scaling-stroke" d="
  M 210.56 479.16
  L 192.26 479.18
  A 0.74 0.64 5.9 0 0 191.56 479.67
  L 190.10 485.47
  A 0.46 0.41 6.3 0 0 190.56 485.98
  L 209.46 485.99
  A 0.81 0.79 -77.0 0 0 210.18 485.53
  Q 211.54 482.69 211.14 479.68
  A 0.60 0.58 86.1 0 0 210.56 479.16"
/>
<path stroke="#77797f" vector-effect="non-scaling-stroke" d="
  M 236.80 479.20
  L 218.03 479.17
  A 0.70 0.64 5.6 0 0 217.36 479.67
  L 216.09 485.48
  A 0.46 0.41 5.5 0 0 216.55 485.98
  L 235.77 485.99
  A 0.80 0.77 3.2 0 0 236.56 485.31
  L 237.27 479.73
  A 0.48 0.47 -86.7 0 0 236.80 479.20"
/>
<path stroke="#77797f" vector-effect="non-scaling-stroke" d="
  M 242.94 480.17
  L 242.19 485.42
  A 0.46 0.44 3.8 0 0 242.65 485.92
  L 262.06 485.92
  A 0.61 0.53 1.0 0 0 262.67 485.41
  L 262.90 479.58
  A 0.54 0.49 1.0 0 0 262.36 479.07
  L 244.33 479.04
  A 1.42 1.31 3.7 0 0 242.94 480.17"
/>
<path stroke="#77797f" vector-effect="non-scaling-stroke" d="
  M 288.94 479.58
  A 0.56 0.56 0.0 0 0 288.38 479.02
  L 269.02 479.02
  A 0.56 0.56 0.0 0 0 268.46 479.58
  L 268.46 485.44
  A 0.56 0.56 0.0 0 0 269.02 486.00
  L 288.38 486.00
  A 0.56 0.56 0.0 0 0 288.94 485.44
  L 288.94 479.58"
/>
<path stroke="#77797f" vector-effect="non-scaling-stroke" d="
  M 314.95 479.77
  A 0.75 0.75 0.0 0 0 314.20 479.02
  L 295.16 479.02
  A 0.75 0.75 0.0 0 0 294.41 479.77
  L 294.41 485.25
  A 0.75 0.75 0.0 0 0 295.16 486.00
  L 314.20 486.00
  A 0.75 0.75 0.0 0 0 314.95 485.25
  L 314.95 479.77"
/>
<path stroke="#77797f" vector-effect="non-scaling-stroke" d="
  M 340.8451 479.6921
  A 0.69 0.69 0.0 0 0 340.1539 479.0033
  L 321.0539 479.0367
  A 0.69 0.69 0.0 0 0 320.3651 479.7279
  L 320.3749 485.3279
  A 0.69 0.69 0.0 0 0 321.0661 486.0167
  L 340.1661 485.9833
  A 0.69 0.69 0.0 0 0 340.8549 485.2921
  L 340.8451 479.6921"
/>
<path stroke="#77797f" vector-effect="non-scaling-stroke" d="
  M 365.01 479.17
  L 346.91 479.10
  A 0.58 0.56 -86.1 0 0 346.34 479.61
  Q 346.03 482.47 346.76 485.43
  A 0.67 0.63 82.3 0 0 347.38 485.93
  L 366.58 485.93
  A 0.49 0.43 -4.4 0 0 367.07 485.42
  L 366.22 480.16
  A 1.25 1.18 -4.1 0 0 365.01 479.17"
/>
<path stroke="#77797f" vector-effect="non-scaling-stroke" d="
  M 391.21 479.19
  L 372.65 479.09
  A 0.56 0.54 -88.3 0 0 372.11 479.62
  Q 371.94 482.60 372.88 485.50
  A 0.70 0.69 80.7 0 0 373.54 485.98
  L 392.71 485.97
  A 0.44 0.42 -5.3 0 0 393.15 485.47
  L 392.07 479.87
  A 0.90 0.84 -4.7 0 0 391.21 479.19"
/>
<path stroke="#77797f" vector-effect="non-scaling-stroke" d="
  M 417.03 479.21
  L 398.28 479.18
  A 0.47 0.43 -5.4 0 0 397.81 479.70
  L 398.99 485.45
  A 0.71 0.61 -4.9 0 0 399.67 485.94
  L 418.72 485.96
  A 0.45 0.40 -6.0 0 0 419.17 485.47
  L 417.73 479.71
  A 0.74 0.67 -6.6 0 0 417.03 479.21"
/>
<path stroke="#77797f" vector-effect="non-scaling-stroke" d="
  M 476.40 479.19
  L 424.30 479.06
  A 0.65 0.59 -7.4 0 0 423.66 479.82
  L 425.35 485.53
  A 0.74 0.63 -6.6 0 0 426.04 485.99
  L 479.09 485.95
  A 0.38 0.36 -9.9 0 0 479.46 485.46
  L 477.16 479.65
  A 0.85 0.71 -8.9 0 0 476.40 479.19"
/>
<path stroke="#cccdcf" vector-effect="non-scaling-stroke" d="
  M 129.11 496.00
  L 129.32 497.02
  A 0.79 0.56 -3.7 0 0 130.05 497.47
  C 135.86 497.56 142.04 497.06 147.75 497.48
  Q 149.31 497.59 149.21 496.00"
/>
<path stroke="#66676a" vector-effect="non-scaling-stroke" d="
  M 149.21 496.00
  L 151.60 489.47
  A 0.34 0.33 9.5 0 0 151.27 489.03
  L 132.15 489.05
  A 0.92 0.91 -74.0 0 0 131.37 489.49
  Q 129.51 492.51 129.11 496.00"
/>
<path stroke="#757577" vector-effect="non-scaling-stroke" d="
  M 149.21 496.00
  L 129.11 496.00"
/>
<path stroke="#cccdcf" vector-effect="non-scaling-stroke" d="
  M 158.00 496.04
  Q 157.40 496.35 157.45 496.99
  A 0.62 0.53 -2.0 0 0 158.06 497.48
  L 173.44 497.48
  A 0.56 0.52 1.6 0 0 174.00 496.99
  Q 174.03 496.28 173.67 496.23"
/>
<path stroke="#77797f" vector-effect="non-scaling-stroke" d="
  M 173.67 496.23
  Q 177.89 494.45 177.66 489.60
  A 0.54 0.54 88.9 0 0 177.12 489.08
  L 158.02 489.03
  A 0.75 0.70 8.6 0 0 157.32 489.51
  L 155.35 495.32
  A 0.44 0.40 -78.1 0 0 155.69 495.90
  L 158.00 496.04"
/>
<path stroke="#87888b" vector-effect="non-scaling-stroke" d="
  M 173.67 496.23
  L 158.00 496.04"
/>
<path stroke="#cccdcf" vector-effect="non-scaling-stroke" d="
  M 184.00 496.04
  L 184.01 497.12
  A 0.53 0.49 -1.1 0 0 184.56 497.61
  Q 197.86 497.27 200.99 497.52
  Q 203.16 497.69 202.46 496.00"
/>
<path stroke="#77797f" vector-effect="non-scaling-stroke" d="
  M 202.46 496.00
  L 204.06 489.58
  A 0.43 0.40 6.7 0 0 203.63 489.08
  L 184.67 489.02
  A 1.22 1.07 6.4 0 0 183.52 489.82
  L 182.10 495.21
  A 0.57 0.56 16.9 0 0 182.47 495.89
  Q 183.23 496.14 184.00 496.04"
/>
<path stroke="#87888b" vector-effect="non-scaling-stroke" d="
  M 202.46 496.00
  L 184.00 496.04"
/>
<path stroke="#cccdcf" vector-effect="non-scaling-stroke" d="
  M 211.50 496.04
  Q 210.14 495.99 210.21 496.99
  A 0.62 0.53 -2.0 0 0 210.82 497.48
  C 213.45 497.49 233.66 497.93 234.41 497.21
  Q 234.86 496.78 234.63 496.11"
/>
<path stroke="#77797f" vector-effect="non-scaling-stroke" d="
  M 234.63 496.11
  Q 236.82 493.26 236.63 489.58
  A 0.54 0.52 -1.1 0 0 236.09 489.08
  L 210.74 489.09
  A 0.71 0.61 4.9 0 0 210.06 489.58
  L 208.79 495.42
  A 0.49 0.44 7.1 0 0 209.26 495.96
  L 211.50 496.04"
/>
<path stroke="#87888b" vector-effect="non-scaling-stroke" d="
  M 234.63 496.11
  L 211.50 496.04"
/>
<path stroke="#cccdcf" vector-effect="non-scaling-stroke" d="
  M 244.00 496.04
  Q 243.38 496.32 243.46 497.08
  A 0.60 0.54 -3.2 0 0 244.06 497.56
  Q 287.25 497.35 330.43 497.22
  C 335.24 497.21 343.89 497.81 350.70 497.21
  A 0.59 0.59 90.0 0 0 351.24 496.67
  L 351.31 496.04"
/>
<path stroke="#77797f" vector-effect="non-scaling-stroke" d="
  M 351.31 496.04
  Q 352.74 493.03 352.01 489.66
  A 0.83 0.83 84.0 0 0 351.20 489.00
  L 243.24 489.00
  A 0.84 0.78 3.1 0 0 242.41 489.69
  L 241.76 495.45
  A 0.51 0.47 3.8 0 0 242.25 495.97
  L 244.00 496.04"
/>
<path stroke="#87888b" vector-effect="non-scaling-stroke" d="
  M 351.31 496.04
  L 244.00 496.04"
/>
<path stroke="#77797f" vector-effect="non-scaling-stroke" d="
  M 357.92 489.19
  A 0.45 0.43 87.0 0 0 357.49 489.69
  L 358.06 495.46
  A 0.57 0.55 87.1 0 0 358.61 495.97
  L 384.60 495.94
  A 0.49 0.44 -4.0 0 0 385.09 495.43
  L 384.12 489.54
  A 0.69 0.58 -3.8 0 0 383.45 489.05
  L 357.92 489.19"
/>
<path stroke="#77797f" vector-effect="non-scaling-stroke" d="
  M 392.19 495.83
  L 411.13 495.89
  A 0.77 0.74 83.5 0 0 411.85 494.95
  L 410.67 489.75
  A 0.96 0.94 83.5 0 0 409.75 489.00
  L 390.76 489.02
  A 0.54 0.52 1.7 0 0 390.22 489.51
  Q 390.01 492.67 391.44 495.37
  A 0.86 0.84 76.0 0 0 392.19 495.83"
/>
<path stroke="#77797f" vector-effect="non-scaling-stroke" d="
  M 440.35 495.79
  L 460.49 495.90
  A 0.64 0.62 -9.2 0 0 461.10 495.08
  L 459.36 489.85
  A 1.25 1.18 -8.7 0 0 458.19 489.04
  L 438.39 489.08
  A 0.42 0.39 -7.4 0 0 437.98 489.58
  L 439.44 495.12
  A 0.97 0.89 -6.2 0 0 440.35 495.79"
/>
<path stroke="#727479" vector-effect="non-scaling-stroke" d="
  M 435.4923 492.1544
  A 0.30 0.30 0.0 0 0 435.1944 491.8523
  L 417.3548 491.7278
  A 0.30 0.30 0.0 0 0 417.0527 492.0257
  L 417.0277 495.6056
  A 0.30 0.30 0.0 0 0 417.3256 495.9077
  L 435.1652 496.0322
  A 0.30 0.30 0.0 0 0 435.4673 495.7343
  L 435.4923 492.1544"
/>
<path stroke="#727479" vector-effect="non-scaling-stroke" d="
  M 466.43 495.83
  L 482.34 495.91
  A 0.58 0.58 4.4 0 0 482.93 495.41
  Q 483.16 493.59 481.88 492.30
  A 1.29 1.17 -20.5 0 0 481.00 491.95
  L 464.71 491.75
  A 0.56 0.54 2.2 0 0 464.15 492.25
  Q 463.98 494.29 465.54 495.52
  A 1.45 1.36 -24.0 0 0 466.43 495.83"
/>
<path stroke="#212227" vector-effect="non-scaling-stroke" d="
  M 150.02 491.35
  A 1.02 0.95 7.1 0 0 149.01 490.14
  L 132.29 490.25
  A 0.73 0.70 -80.1 0 0 131.62 490.74
  L 130.63 493.74
  A 0.97 0.93 8.9 0 0 131.56 494.97
  L 148.43 494.98
  A 0.75 0.64 6.5 0 0 149.13 494.51
  L 150.02 491.35"
/>
</g>
<path fill="#f15d4f" d="
  M 0.00 0.00
  L 612.00 0.00
  L 612.00 612.00
  L 0.00 612.00
  L 0.00 0.00
  Z
  M 163.71 176.50
  L 162.75 176.79
  Q 145.24 176.11 135.98 176.51
  C 117.95 177.30 111.01 188.45 111.01 204.79
  Q 110.99 316.77 111.02 428.75
  Q 111.02 431.57 110.50 434.08
  Q 89.05 478.08 67.55 522.04
  C 65.45 526.34 63.94 528.98 64.29 534.17
  C 63.41 537.47 65.23 538.00 67.97 538.00
  Q 306.74 538.00 545.84 538.00
  A 1.84 1.60 -86.2 0 0 547.46 536.37
  L 547.71 534.12
  Q 548.07 529.15 546.27 525.49
  Q 523.91 480.22 501.96 434.75
  Q 502.04 320.61 501.99 206.47
  Q 501.99 196.30 500.57 192.20
  C 497.17 182.38 488.31 176.87 478.07 176.63
  Q 462.39 176.26 449.29 176.75
  Q 451.80 143.12 449.21 108.99
  A 1.18 1.16 -4.8 0 0 447.93 107.92
  C 397.01 112.64 346.37 96.46 306.98 64.10
  A 0.62 0.62 45.4 0 0 306.20 64.09
  Q 244.61 114.03 164.60 108.07
  A 0.55 0.55 -85.8 0 0 164.01 108.58
  Q 161.59 142.62 163.71 176.50
  Z"
/>
<path fill="#ffffff" d="
  M 449.29 176.75
  L 447.79 195.00
  C 437.27 282.19 399.75 368.87 307.24 394.93
  A 1.78 1.72 44.0 0 1 306.27 394.93
  Q 263.40 383.09 231.79 352.00
  C 189.98 309.31 173.47 253.95 165.46 195.75
  L 163.71 176.50
  Q 161.59 142.62 164.01 108.58
  A 0.55 0.55 -85.8 0 1 164.60 108.07
  Q 244.61 114.03 306.20 64.09
  A 0.62 0.62 45.4 0 1 306.98 64.10
  C 346.37 96.46 397.01 112.64 447.93 107.92
  A 1.18 1.16 -4.8 0 1 449.21 108.99
  Q 451.80 143.12 449.29 176.75
  Z
  M 204.22 134.37
  L 189.93 135.18
  A 0.87 0.85 -1.1 0 0 189.10 136.02
  C 188.24 223.12 210.61 334.13 305.76 367.03
  A 2.63 2.63 44.7 0 0 307.46 367.03
  Q 349.10 352.65 375.79 317.50
  C 398.19 289.86 410.65 252.02 417.09 217.56
  Q 424.66 177.07 423.93 135.79
  A 0.54 0.53 -89.4 0 0 423.42 135.26
  Q 359.86 132.57 307.12 97.17
  A 0.75 0.75 45.0 0 0 306.30 97.17
  Q 259.84 128.09 204.22 134.37
  Z"
/>
<path fill="#54c9ed" d="
  M 375.79 317.50
  C 374.89 316.26 368.64 306.21 368.25 306.21
  L 368.96 305.25
  C 401.04 261.74 410.75 201.29 410.08 148.22
  A 0.54 0.53 1.7 0 0 409.57 147.69
  Q 354.36 144.68 308.19 114.55
  A 0.40 0.39 -70.2 0 0 307.58 114.84
  Q 306.22 126.48 308.14 137.95
  C 283.33 136.71 263.84 155.10 261.46 179.50
  Q 260.85 179.97 259.98 180.03
  A 1.33 1.03 57.8 0 1 259.10 179.71
  Q 233.56 157.60 206.69 137.14
  C 205.77 136.45 204.91 135.31 204.22 134.37
  Q 259.84 128.09 306.30 97.17
  A 0.75 0.75 44.7 0 1 307.12 97.17
  Q 359.86 132.57 423.42 135.26
  A 0.54 0.53 -89.4 0 1 423.93 135.79
  Q 424.66 177.07 417.09 217.56
  C 410.65 252.02 398.19 289.86 375.79 317.50
  Z"
/>
<path fill="#87d3ed" d="
  M 368.96 305.25
  Q 366.93 304.03 365.71 302.00
  Q 370.44 299.83 370.45 294.43
  Q 370.54 256.59 370.46 218.75
  C 370.44 212.26 370.91 205.45 364.29 204.50
  Q 363.20 198.67 357.25 197.96
  Q 359.75 177.39 347.86 160.91
  C 347.29 160.12 343.33 153.14 342.21 155.25
  Q 329.28 139.02 308.14 137.95
  Q 306.22 126.48 307.58 114.84
  A 0.40 0.39 -70.2 0 1 308.19 114.55
  Q 354.36 144.68 409.57 147.69
  A 0.54 0.53 1.7 0 1 410.08 148.22
  C 410.75 201.29 401.04 261.74 368.96 305.25
  Z"
/>
<path fill="#06b4e6" d="
  M 204.22 134.37
  C 204.91 135.31 205.77 136.45 206.69 137.14
  Q 233.56 157.60 259.10 179.71
  A 1.33 1.03 57.8 0 0 259.98 180.03
  Q 260.85 179.97 261.46 179.50
  L 261.28 198.02
  Q 253.38 196.21 249.71 201.70
  Q 248.49 203.52 248.49 206.60
  C 248.50 231.52 249.22 256.76 248.18 281.65
  C 247.93 287.70 247.87 295.59 255.50 296.04
  C 254.08 301.26 261.82 301.76 265.57 301.80
  Q 286.38 302.04 307.21 302.00
  L 307.29 302.25
  L 307.31 350.19
  A 0.36 0.35 -9.9 0 0 307.79 350.52
  Q 344.83 337.63 368.25 306.21
  C 368.64 306.21 374.89 316.26 375.79 317.50
  Q 349.10 352.65 307.46 367.03
  A 2.63 2.63 45.1 0 1 305.76 367.03
  C 210.61 334.13 188.24 223.12 189.10 136.02
  A 0.87 0.85 -1.1 0 1 189.93 135.18
  L 204.22 134.37
  Z"
/>
<path fill="#ffffff" d="
  M 308.14 137.95
  Q 329.28 139.02 342.21 155.25
  C 352.00 167.88 352.31 182.60 351.25 197.96
  L 337.04 197.75
  C 337.74 186.02 338.34 172.74 330.30 163.54
  Q 321.66 153.07 308.00 152.29
  C 293.82 151.93 280.91 160.33 277.05 174.00
  C 275.15 180.72 276.14 190.21 275.75 197.96
  L 261.28 198.02
  L 261.46 179.50
  C 263.84 155.10 283.33 136.71 308.14 137.95
  Z"
/>
<path fill="#51a4be" d="
  M 308.00 152.29
  Q 306.76 155.31 307.29 158.50
  L 307.21 158.75
  Q 291.49 161.54 284.63 175.94
  C 281.36 182.79 281.85 189.57 282.00 197.96
  L 275.75 197.96
  C 276.14 190.21 275.15 180.72 277.05 174.00
  C 280.91 160.33 293.82 151.93 308.00 152.29
  Z"
/>
<path fill="#74adc1" d="
  M 308.00 152.29
  Q 321.66 153.07 330.30 163.54
  C 322.90 158.60 316.10 157.29 307.29 158.50
  Q 306.76 155.31 308.00 152.29
  Z"
/>
<path fill="#74adc1" d="
  M 357.25 197.96
  L 351.25 197.96
  C 352.31 182.60 352.00 167.88 342.21 155.25
  C 343.33 153.14 347.29 160.12 347.86 160.91
  Q 359.75 177.39 357.25 197.96
  Z"
/>
<path fill="#87d3ed" d="
  M 330.30 163.54
  C 338.34 172.74 337.74 186.02 337.04 197.75
  L 307.38 197.95
  L 307.21 158.75
  L 307.29 158.50
  C 316.10 157.29 322.90 158.60 330.30 163.54
  Z"
/>
<path fill="#54c9ed" d="
  M 307.21 158.75
  L 307.38 197.95
  L 282.00 197.96
  C 281.85 189.57 281.36 182.79 284.63 175.94
  Q 291.49 161.54 307.21 158.75
  Z"
/>
<path fill="#3a4658" d="
  M 162.75 176.79
  Q 163.15 177.67 163.19 179.31
  Q 163.31 185.12 164.25 194.96
  L 130.98 194.99
  A 0.47 0.47 0.0 0 0 130.51 195.46
  L 130.53 423.46
  A 0.50 0.50 0.0 0 0 131.03 423.96
  L 303.50 423.96
  L 481.54 423.98
  A 1.45 1.44 -0.0 0 0 482.99 422.54
  L 482.86 229.82
  L 482.81 195.69
  A 0.50 0.49 90.0 0 0 482.32 195.19
  L 453.75 195.04
  L 448.79 195.00
  L 447.79 195.00
  L 449.29 176.75
  Q 462.39 176.26 478.07 176.63
  C 488.31 176.87 497.17 182.38 500.57 192.20
  Q 501.99 196.30 501.99 206.47
  Q 502.04 320.61 501.96 434.75
  Q 497.22 431.16 491.43 431.06
  Q 471.53 430.71 447.96 431.26
  Q 403.73 431.71 359.50 431.50
  C 294.26 431.18 229.03 431.43 163.79 431.25
  Q 143.15 430.81 122.50 431.01
  Q 116.35 431.06 110.50 434.08
  Q 111.02 431.57 111.02 428.75
  Q 110.99 316.77 111.01 204.79
  C 111.01 188.45 117.95 177.30 135.98 176.51
  Q 145.24 176.11 162.75 176.79
  Z"
/>
<path fill="#0f0f12" d="
  M 163.71 176.50
  L 165.46 195.75
  L 164.25 194.96
  Q 163.31 185.12 163.19 179.31
  Q 163.15 177.67 162.75 176.79
  L 163.71 176.50
  Z"
/>
<path fill="#259b6b" d="
  M 448.79 195.00
  L 448.48 196.26
  A 0.72 0.51 17.9 0 0 448.97 196.92
  C 452.94 198.41 453.50 201.39 453.05 205.47
  C 443.60 290.73 404.01 375.65 315.20 401.81
  C 312.24 402.68 310.18 402.09 307.41 401.14
  C 295.16 396.96 280.76 391.88 270.75 384.37
  Q 266.20 380.96 260.57 379.69
  C 251.66 370.51 241.09 362.18 232.18 353.79
  A 1.29 0.75 32.7 0 1 231.75 352.95
  L 231.79 352.00
  Q 263.40 383.09 306.27 394.93
  A 1.78 1.72 44.0 0 0 307.24 394.93
  C 399.75 368.87 437.27 282.19 447.79 195.00
  L 448.79 195.00
  Z"
/>
<path fill="#2bb67f" d="
  M 453.75 195.04
  C 453.24 198.72 453.39 201.31 456.24 204.08
  Q 469.51 216.99 482.86 229.82
  L 482.99 422.54
  A 1.45 1.44 -0.0 0 1 481.54 423.98
  L 303.50 423.96
  Q 304.26 423.45 304.00 422.64
  A 0.97 0.71 -0.1 0 0 303.28 422.12
  C 300.19 421.59 297.23 417.08 295.14 415.02
  Q 277.54 397.70 260.57 379.69
  Q 266.20 380.96 270.75 384.37
  C 280.76 391.88 295.16 396.96 307.41 401.14
  C 310.18 402.09 312.24 402.68 315.20 401.81
  C 404.01 375.65 443.60 290.73 453.05 205.47
  C 453.50 201.39 452.94 198.41 448.97 196.92
  A 0.72 0.51 17.9 0 1 448.48 196.26
  L 448.79 195.00
  L 453.75 195.04
  Z"
/>
<path fill="#4fbd90" d="
  M 164.25 194.96
  L 165.46 195.75
  C 173.47 253.95 189.98 309.31 231.79 352.00
  L 231.75 352.95
  A 1.29 0.75 32.7 0 0 232.18 353.79
  C 241.09 362.18 251.66 370.51 260.57 379.69
  Q 277.54 397.70 295.14 415.02
  C 297.23 417.08 300.19 421.59 303.28 422.12
  A 0.97 0.71 -0.1 0 1 304.00 422.64
  Q 304.26 423.45 303.50 423.96
  L 131.03 423.96
  A 0.50 0.50 0.0 0 1 130.53 423.46
  L 130.51 195.46
  A 0.47 0.47 0.0 0 1 130.98 194.99
  L 164.25 194.96
  Z"
/>
<path fill="#4fbd90" d="
  M 453.75 195.04
  L 482.32 195.19
  A 0.50 0.49 90.0 0 1 482.81 195.69
  L 482.86 229.82
  Q 469.51 216.99 456.24 204.08
  C 453.39 201.31 453.24 198.72 453.75 195.04
  Z"
/>
<path fill="#feca39" d="
  M 261.28 198.02
  L 275.75 197.96
  L 282.00 197.96
  L 307.38 197.95
  L 337.04 197.75
  L 351.25 197.96
  L 357.25 197.96
  Q 363.20 198.67 364.29 204.50
  C 364.86 231.81 364.40 259.76 364.48 286.49
  Q 364.50 291.28 361.57 295.40
  Q 334.75 296.41 308.00 296.04
  L 255.50 296.04
  C 247.87 295.59 247.93 287.70 248.18 281.65
  C 249.22 256.76 248.50 231.52 248.49 206.60
  Q 248.49 203.52 249.71 201.70
  Q 253.38 196.21 261.28 198.02
  Z
  M 355.73 213.59
  A 4.10 4.10 0.0 0 0 351.63 209.49
  L 351.35 209.49
  A 4.10 4.10 0.0 0 0 347.25 213.59
  L 347.25 245.11
  A 4.10 4.10 0.0 0 0 351.35 249.21
  L 351.63 249.21
  A 4.10 4.10 0.0 0 0 355.73 245.11
  L 355.73 213.59
  Z
  M 301.68 274.54
  L 311.19 274.59
  A 0.91 0.83 -89.7 0 0 312.03 273.68
  L 312.10 253.89
  A 0.82 0.77 -13.3 0 1 312.57 253.18
  C 321.63 248.94 325.19 239.26 320.30 230.47
  C 314.91 220.79 300.58 219.57 293.72 228.68
  C 287.25 237.28 290.65 248.23 300.22 253.08
  A 1.39 1.37 -76.9 0 1 300.98 254.32
  L 300.99 273.78
  A 0.77 0.70 90.0 0 0 301.68 274.54
  Z
  M 355.7421 261.8174
  A 4.05 4.05 0.0 0 0 351.6992 257.7603
  L 351.3392 257.7597
  A 4.05 4.05 0.0 0 0 347.2821 261.8026
  L 347.2579 275.7026
  A 4.05 4.05 0.0 0 0 351.3008 279.7597
  L 351.6608 279.7603
  A 4.05 4.05 0.0 0 0 355.7179 275.7174
  L 355.7421 261.8174
  Z"
/>
<path fill="#74adc1" d="
  M 364.29 204.50
  C 370.91 205.45 370.44 212.26 370.46 218.75
  Q 370.54 256.59 370.45 294.43
  Q 370.44 299.83 365.71 302.00
  L 365.50 301.96
  L 361.57 295.40
  Q 364.50 291.28 364.48 286.49
  C 364.40 259.76 364.86 231.81 364.29 204.50
  Z"
/>
<rect fill="#ffffff" x="347.25" y="209.49" width="8.48" height="39.72" rx="4.10"/>
<path fill="#cc8e29" d="
  M 301.68 274.54
  A 0.77 0.70 90.0 0 1 300.99 273.78
  L 300.98 254.32
  A 1.39 1.37 -76.9 0 0 300.22 253.08
  C 290.65 248.23 287.25 237.28 293.72 228.68
  C 300.58 219.57 314.91 220.79 320.30 230.47
  C 325.19 239.26 321.63 248.94 312.57 253.18
  A 0.82 0.77 -13.3 0 0 312.10 253.89
  L 312.03 273.68
  A 0.91 0.83 -89.7 0 1 311.19 274.59
  L 301.68 274.54
  Z"
/>
<rect fill="#ffffff" x="-4.23" y="-11.00" transform="translate(351.50,268.76) rotate(0.1)" width="8.46" height="22.00" rx="4.05"/>
<path fill="#51a4be" d="
  M 361.57 295.40
  L 365.50 301.96
  L 307.29 302.25
  L 307.21 302.00
  L 308.00 296.04
  Q 334.75 296.41 361.57 295.40
  Z"
/>
<path fill="#1f93ba" d="
  M 255.50 296.04
  L 308.00 296.04
  L 307.21 302.00
  Q 286.38 302.04 265.57 301.80
  C 261.82 301.76 254.08 301.26 255.50 296.04
  Z"
/>
<path fill="#5cc8ec" d="
  M 365.50 301.96
  L 365.71 302.00
  Q 366.93 304.03 368.96 305.25
  L 368.25 306.21
  Q 344.83 337.63 307.79 350.52
  A 0.36 0.35 -9.9 0 1 307.31 350.19
  L 307.29 302.25
  L 365.50 301.96
  Z"
/>
<path fill="#dbdbdb" d="
  M 501.96 434.75
  Q 523.91 480.22 546.27 525.49
  Q 548.07 529.15 547.71 534.12
  C 487.22 534.33 426.74 533.97 366.25 533.93
  Q 366.10 532.18 364.50 532.17
  C 325.62 531.80 286.70 532.24 247.82 532.26
  Q 246.40 532.26 246.25 533.90
  Q 232.72 534.00 219.19 534.05
  Q 141.74 534.32 64.29 534.17
  C 63.94 528.98 65.45 526.34 67.55 522.04
  Q 89.05 478.08 110.50 434.08
  Q 116.35 431.06 122.50 431.01
  Q 143.15 430.81 163.79 431.25
  Q 163.05 432.55 163.23 434.01
  A 0.59 0.55 -2.7 0 0 163.81 434.50
  L 448.63 434.50
  A 0.56 0.53 -12.3 0 0 449.15 433.74
  L 447.96 431.26
  Q 471.53 430.71 491.43 431.06
  Q 497.22 431.16 501.96 434.75
  Z
  M 138.76 440.11
  L 115.94 496.99
  A 1.40 1.39 -78.8 0 0 117.22 498.91
  C 180.21 498.93 243.54 498.41 306.69 499.02
  C 324.09 499.19 341.89 498.90 359.50 499.10
  L 381.50 498.79
  L 393.25 498.96
  L 409.00 498.71
  Q 414.30 499.66 419.44 498.40
  Q 427.22 499.32 435.10 498.33
  Q 437.54 499.69 440.25 498.71
  Q 450.55 499.12 461.04 498.30
  Q 463.44 500.00 465.96 498.40
  L 478.00 498.71
  Q 485.98 499.39 495.38 498.78
  A 1.04 1.02 77.2 0 0 496.26 497.36
  L 473.68 440.60
  Q 472.23 438.26 467.94 438.26
  Q 307.43 438.24 146.93 438.25
  Q 146.83 438.25 144.59 438.11
  Q 141.28 437.89 138.76 440.11
  Z
  M 250.07 505.60
  Q 248.68 514.38 247.66 522.45
  C 247.42 524.36 245.96 526.96 249.56 526.97
  Q 285.39 527.13 321.28 526.91
  L 363.45 526.92
  A 1.37 1.33 -3.6 0 0 364.82 525.41
  L 361.99 505.27
  Q 362.24 504.78 361.46 504.26
  C 360.22 503.45 355.52 503.78 353.93 503.77
  Q 304.91 503.32 255.89 503.81
  Q 255.78 503.81 253.63 503.67
  Q 250.83 503.50 250.07 505.60
  Z"
/>
<path fill="#22292b" d="
  M 447.96 431.26
  L 449.15 433.74
  A 0.56 0.53 -12.3 0 1 448.63 434.50
  L 163.81 434.50
  A 0.59 0.55 -2.7 0 1 163.23 434.01
  Q 163.05 432.55 163.79 431.25
  C 229.03 431.43 294.26 431.18 359.50 431.50
  Q 403.73 431.71 447.96 431.26
  Z"
/>
<path fill="#8a9190" d="
  M 473.68 440.60
  C 368.30 439.85 262.82 440.16 157.41 440.44
  C 152.09 440.46 145.08 439.91 138.76 440.11
  Q 141.28 437.89 144.59 438.11
  Q 146.83 438.25 146.93 438.25
  Q 307.43 438.24 467.94 438.26
  Q 472.23 438.26 473.68 440.60
  Z"
/>
<path fill="#bcbec2" d="
  M 473.68 440.60
  L 496.26 497.36
  A 1.04 1.02 77.2 0 1 495.38 498.78
  Q 485.98 499.39 478.00 498.71
  Q 478.50 498.47 478.53 498.05
  A 0.65 0.49 5.8 0 0 477.94 497.50
  Q 471.84 496.91 465.96 498.40
  Q 463.44 500.00 461.04 498.30
  Q 453.38 497.10 442.07 497.59
  Q 440.39 497.67 440.25 498.71
  Q 437.54 499.69 435.10 498.33
  Q 427.23 496.23 419.44 498.40
  Q 414.30 499.66 409.00 498.71
  Q 409.49 498.36 409.46 497.96
  A 0.70 0.49 -1.2 0 0 408.77 497.50
  L 393.81 497.51
  A 0.55 0.50 -0.0 0 0 393.26 498.01
  L 393.25 498.96
  L 381.50 498.79
  Q 383.40 497.81 381.43 497.76
  Q 370.84 497.45 360.25 497.61
  Q 358.67 497.63 359.50 499.10
  C 341.89 498.90 324.09 499.19 306.69 499.02
  C 243.54 498.41 180.21 498.93 117.22 498.91
  A 1.40 1.39 -78.8 0 1 115.94 496.99
  L 138.76 440.11
  C 145.08 439.91 152.09 440.46 157.41 440.44
  C 262.82 440.16 368.30 439.85 473.68 440.60
  Z
  M 148.03 443.81
  Q 147.09 445.09 147.20 446.49
  A 0.59 0.53 -2.1 0 0 147.78 446.98
  Q 155.88 447.03 164.01 446.93
  Q 167.53 446.89 167.24 443.52
  A 0.56 0.54 -2.2 0 0 166.68 443.02
  L 149.60 443.02
  A 1.97 1.95 -71.5 0 0 148.03 443.81
  Z
  M 175.05 443.61
  Q 174.12 445.10 174.31 446.43
  A 0.62 0.59 -4.3 0 0 174.92 446.93
  L 192.76 446.86
  A 0.91 0.89 15.0 0 0 193.54 446.42
  Q 194.30 445.10 194.23 443.52
  A 0.54 0.52 -1.1 0 0 193.69 443.02
  L 176.09 443.03
  A 1.23 1.22 -74.0 0 0 175.05 443.61
  Z
  M 202.18 443.44
  L 201.31 446.44
  A 0.49 0.41 6.5 0 0 201.81 446.96
  L 220.02 446.86
  A 0.81 0.79 11.9 0 0 220.75 446.40
  Q 221.40 445.03 221.09 443.51
  A 0.64 0.60 -4.9 0 0 220.47 443.02
  L 202.84 443.03
  A 0.72 0.56 6.2 0 0 202.18 443.44
  Z
  M 248.1070 443.2630
  A 0.27 0.27 0.0 0 0 247.8365 442.9935
  L 228.8965 443.0265
  A 0.27 0.27 0.0 0 0 228.6270 443.2970
  L 228.6330 446.7370
  A 0.27 0.27 0.0 0 0 228.9035 447.0065
  L 247.8435 446.9735
  A 0.27 0.27 0.0 0 0 248.1130 446.7030
  L 248.1070 443.2630
  Z
  M 275.2363 443.9158
  A 0.94 0.94 0.0 0 0 274.2930 442.9791
  L 256.5531 443.0410
  A 0.94 0.94 0.0 0 0 255.6164 443.9842
  L 255.6237 446.0842
  A 0.94 0.94 0.0 0 0 256.5670 447.0209
  L 274.3069 446.9590
  A 0.94 0.94 0.0 0 0 275.2436 446.0158
  L 275.2363 443.9158
  Z
  M 302.2280 443.8530
  A 0.87 0.87 0.0 0 0 301.3565 442.9845
  L 283.5965 443.0155
  A 0.87 0.87 0.0 0 0 282.7280 443.8870
  L 282.7320 446.1470
  A 0.87 0.87 0.0 0 0 283.6035 447.0155
  L 301.3635 446.9845
  A 0.87 0.87 0.0 0 0 302.2320 446.1130
  L 302.2280 443.8530
  Z
  M 329.26 443.76
  A 0.75 0.75 0.0 0 0 328.51 443.01
  L 310.51 443.01
  A 0.75 0.75 0.0 0 0 309.76 443.76
  L 309.76 446.26
  A 0.75 0.75 0.0 0 0 310.51 447.01
  L 328.51 447.01
  A 0.75 0.75 0.0 0 0 329.26 446.26
  L 329.26 443.76
  Z
  M 356.36 443.69
  A 0.68 0.68 0.0 0 0 355.68 443.01
  L 337.60 443.01
  A 0.68 0.68 0.0 0 0 336.92 443.69
  L 336.92 446.31
  A 0.68 0.68 0.0 0 0 337.60 446.99
  L 355.68 446.99
  A 0.68 0.68 0.0 0 0 356.36 446.31
  L 356.36 443.69
  Z
  M 383.3822 443.7670
  A 0.74 0.74 0.0 0 0 382.6435 443.0257
  L 364.6035 442.9943
  A 0.74 0.74 0.0 0 0 363.8622 443.7330
  L 363.8578 446.2330
  A 0.74 0.74 0.0 0 0 364.5965 446.9743
  L 382.6365 447.0057
  A 0.74 0.74 0.0 0 0 383.3778 446.2670
  L 383.3822 443.7670
  Z
  M 410.4559 443.3240
  A 0.26 0.26 0.0 0 0 410.1968 443.0631
  L 391.2169 442.9969
  A 0.26 0.26 0.0 0 0 390.9560 443.2560
  L 390.9441 446.6760
  A 0.26 0.26 0.0 0 0 391.2032 446.9369
  L 410.1831 447.0031
  A 0.26 0.26 0.0 0 0 410.4440 446.7440
  L 410.4559 443.3240
  Z
  M 420.82 446.87
  Q 429.05 447.19 437.33 446.91
  A 0.53 0.50 -2.2 0 0 437.84 446.39
  Q 437.77 444.86 436.88 443.47
  A 0.96 0.91 -15.6 0 0 436.09 443.05
  L 418.20 443.06
  A 0.51 0.50 -0.6 0 0 417.69 443.57
  C 417.73 445.86 418.40 446.78 420.82 446.87
  Z
  M 448.12 446.87
  Q 456.20 447.18 464.35 446.91
  A 0.53 0.53 -5.0 0 0 464.87 446.39
  Q 464.87 444.60 463.63 443.32
  A 1.29 1.08 -18.5 0 0 462.76 442.98
  L 445.24 442.97
  A 0.54 0.52 1.1 0 0 444.70 443.47
  C 444.56 446.03 445.64 446.78 448.12 446.87
  Z
  M 143.91 456.71
  Q 153.57 457.33 161.71 456.69
  A 1.07 1.06 -83.3 0 0 162.63 455.96
  L 164.44 450.62
  A 0.66 0.65 -83.4 0 0 163.77 449.76
  C 157.90 450.30 151.99 449.25 146.26 450.18
  A 0.92 0.84 5.1 0 0 145.56 450.71
  L 143.42 455.99
  A 0.55 0.52 12.0 0 0 143.91 456.71
  Z
  M 168.78 456.72
  Q 178.06 457.33 186.11 456.70
  A 0.83 0.70 5.4 0 0 186.81 456.21
  L 188.59 450.63
  A 0.44 0.42 8.6 0 0 188.16 450.08
  L 170.78 449.98
  A 0.81 0.66 8.0 0 0 170.05 450.42
  L 168.12 455.80
  A 0.74 0.68 11.5 0 0 168.78 456.72
  Z
  M 192.97 456.70
  C 198.78 457.09 204.63 457.17 210.49 456.80
  A 0.85 0.84 10.4 0 0 211.21 456.31
  Q 212.45 453.57 212.57 450.43
  A 0.49 0.48 1.1 0 0 212.08 449.93
  L 194.70 450.07
  A 0.78 0.61 5.1 0 0 193.99 450.53
  L 192.51 456.18
  A 0.49 0.41 8.5 0 0 192.97 456.70
  Z
  M 217.93 456.83
  L 234.99 456.81
  A 0.77 0.73 -78.8 0 0 235.68 456.32
  Q 236.80 453.56 236.83 450.42
  A 0.51 0.50 90.0 0 0 236.33 449.91
  L 218.73 450.09
  A 0.79 0.79 -79.0 0 0 218.02 450.57
  Q 216.83 453.45 217.34 456.32
  A 0.61 0.58 84.3 0 0 217.93 456.83
  Z
  M 309.4008 450.9666
  A 0.94 0.94 0.0 0 0 308.4724 450.0152
  L 291.2936 449.8053
  A 0.94 0.94 0.0 0 0 290.3422 450.7338
  L 290.2792 455.8934
  A 0.94 0.94 0.0 0 0 291.2076 456.8448
  L 308.3864 457.0547
  A 0.94 0.94 0.0 0 0 309.3378 456.1262
  L 309.4008 450.9666
  Z
  M 333.8154 450.8133
  A 0.88 0.88 0.0 0 0 332.9339 449.9349
  L 315.5939 449.9651
  A 0.88 0.88 0.0 0 0 314.7154 450.8467
  L 314.7246 456.0867
  A 0.88 0.88 0.0 0 0 315.6061 456.9651
  L 332.9461 456.9349
  A 0.88 0.88 0.0 0 0 333.8246 456.0533
  L 333.8154 450.8133
  Z
  M 358.0548 450.5002
  A 0.62 0.62 0.0 0 0 357.4316 449.8834
  L 339.6318 449.9766
  A 0.62 0.62 0.0 0 0 339.0151 450.5999
  L 339.0452 456.3398
  A 0.62 0.62 0.0 0 0 339.6684 456.9566
  L 357.4682 456.8634
  A 0.62 0.62 0.0 0 0 358.0849 456.2401
  L 358.0548 450.5002
  Z
  M 382.4247 450.7267
  A 0.80 0.80 0.0 0 0 381.6261 449.9253
  L 364.0461 449.8947
  A 0.80 0.80 0.0 0 0 363.2447 450.6933
  L 363.2353 456.0933
  A 0.80 0.80 0.0 0 0 364.0339 456.8947
  L 381.6139 456.9253
  A 0.80 0.80 0.0 0 0 382.4153 456.1267
  L 382.4247 450.7267
  Z
  M 413.75 456.74
  C 420.09 456.68 425.52 457.35 431.46 456.77
  A 0.44 0.42 -10.4 0 0 431.85 456.23
  L 430.10 450.48
  A 0.71 0.66 -7.6 0 0 429.43 450.01
  L 411.89 449.90
  A 0.48 0.48 88.9 0 0 411.41 450.40
  Q 411.56 453.55 413.00 456.30
  A 0.83 0.83 -14.6 0 0 413.75 456.74
  Z
  M 437.87 456.79
  L 468.21 456.91
  A 0.50 0.50 -10.7 0 0 468.68 456.23
  L 466.51 450.78
  A 1.34 1.30 -10.8 0 0 465.26 449.96
  L 434.80 450.02
  A 0.39 0.36 -9.3 0 0 434.43 450.50
  L 436.02 455.46
  A 1.97 1.93 -8.6 0 0 437.87 456.79
  Z
  M 260.80 450.28
  A 0.27 0.27 0.0 0 0 260.53 450.01
  L 241.93 450.01
  A 0.27 0.27 0.0 0 0 241.66 450.28
  L 241.66 456.68
  A 0.27 0.27 0.0 0 0 241.93 456.95
  L 260.53 456.95
  A 0.27 0.27 0.0 0 0 260.80 456.68
  L 260.80 450.28
  Z
  M 285.0653 450.4566
  A 0.44 0.44 0.0 0 0 284.6261 450.0159
  L 266.4661 449.9842
  A 0.44 0.44 0.0 0 0 266.0253 450.4234
  L 266.0147 456.5034
  A 0.44 0.44 0.0 0 0 266.4539 456.9441
  L 284.6139 456.9758
  A 0.44 0.44 0.0 0 0 285.0547 456.5366
  L 285.0653 450.4566
  Z
  M 389.53 456.71
  L 406.44 456.83
  A 0.83 0.82 -7.0 0 0 407.25 455.80
  L 405.85 450.49
  A 0.71 0.62 -6.2 0 0 405.18 450.02
  L 387.54 450.03
  A 0.43 0.42 -5.5 0 0 387.12 450.53
  L 388.12 455.55
  A 1.45 1.44 -5.4 0 0 389.53 456.71
  Z
  M 144.01 466.60
  Q 157.49 467.03 171.03 466.49
  A 0.88 0.86 12.2 0 0 171.77 466.03
  Q 173.17 463.32 173.56 460.07
  A 0.45 0.44 -86.6 0 0 173.12 459.57
  L 144.69 459.41
  Q 142.32 459.40 141.68 461.09
  L 139.85 465.99
  A 0.45 0.43 14.1 0 0 140.22 466.57
  C 141.39 466.74 143.32 466.58 144.01 466.60
  Z
  M 177.92 466.56
  Q 187.06 467.01 196.20 466.41
  A 0.73 0.70 6.2 0 0 196.85 465.91
  L 198.26 461.10
  A 1.37 1.29 7.8 0 0 196.92 459.45
  L 181.01 459.42
  A 2.29 2.18 7.5 0 0 178.83 461.01
  L 177.42 465.87
  A 0.54 0.54 9.2 0 0 177.92 466.56
  Z
  M 203.00 466.46
  C 209.84 466.50 215.53 466.90 221.44 466.43
  A 0.67 0.64 2.7 0 0 222.04 465.91
  L 223.07 460.49
  A 0.90 0.89 3.5 0 0 222.13 459.44
  Q 214.12 459.94 205.89 459.41
  A 2.15 1.87 7.5 0 0 203.70 460.86
  L 202.57 465.97
  A 0.43 0.40 5.9 0 0 203.00 466.46
  Z
  M 228.01 466.46
  C 234.14 466.54 240.20 466.67 246.35 466.42
  A 0.61 0.61 3.4 0 0 246.93 465.91
  L 247.77 461.07
  A 1.52 1.39 4.5 0 0 246.25 459.44
  L 230.88 459.41
  Q 228.45 459.41 228.18 461.40
  L 227.55 465.96
  A 0.47 0.45 3.9 0 0 228.01 466.46
  Z
  M 272.3363 460.4388
  A 0.97 0.97 0.0 0 0 271.3612 459.4739
  L 253.7214 459.5662
  A 0.97 0.97 0.0 0 0 252.7565 460.5413
  L 252.7837 465.7412
  A 0.97 0.97 0.0 0 0 253.7588 466.7061
  L 271.3986 466.6138
  A 0.97 0.97 0.0 0 0 272.3635 465.6387
  L 272.3363 460.4388
  Z
  M 297.1062 460.4694
  A 0.99 0.99 0.0 0 0 296.1110 459.4845
  L 278.7313 459.5755
  A 0.99 0.99 0.0 0 0 277.7465 460.5707
  L 277.7738 465.7906
  A 0.99 0.99 0.0 0 0 278.7690 466.7755
  L 296.1487 466.6845
  A 0.99 0.99 0.0 0 0 297.1335 465.6893
  L 297.1062 460.4694
  Z
  M 322.0092 460.4641
  A 0.92 0.92 0.0 0 0 321.0924 459.5408
  L 303.4326 459.4792
  A 0.92 0.92 0.0 0 0 302.5093 460.3960
  L 302.4908 465.7159
  A 0.92 0.92 0.0 0 0 303.4076 466.6392
  L 321.0674 466.7008
  A 0.92 0.92 0.0 0 0 321.9907 465.7840
  L 322.0092 460.4641
  Z
  M 347.00 460.60
  A 1.05 1.05 0.0 0 0 345.95 459.55
  L 328.39 459.55
  A 1.05 1.05 0.0 0 0 327.34 460.60
  L 327.34 465.64
  A 1.05 1.05 0.0 0 0 328.39 466.69
  L 345.95 466.69
  A 1.05 1.05 0.0 0 0 347.00 465.64
  L 347.00 460.60
  Z
  M 371.7327 459.7789
  A 0.26 0.26 0.0 0 0 371.4713 459.5203
  L 352.4516 459.6198
  A 0.26 0.26 0.0 0 0 352.1930 459.8812
  L 352.2273 466.4411
  A 0.26 0.26 0.0 0 0 352.4887 466.6997
  L 371.5084 466.6002
  A 0.26 0.26 0.0 0 0 371.7670 466.3388
  L 371.7327 459.7789
  Z
  M 378.11 466.16
  A 1.07 1.06 76.0 0 0 379.05 466.73
  L 396.38 466.75
  A 0.79 0.77 -6.2 0 0 397.15 465.81
  L 395.91 460.12
  A 0.66 0.63 -6.0 0 0 395.27 459.63
  L 377.17 459.62
  A 0.48 0.48 -89.4 0 0 376.69 460.09
  Q 376.60 463.37 378.11 466.16
  Z
  M 403.72 466.58
  L 421.72 466.46
  A 0.43 0.39 -7.2 0 0 422.14 465.96
  L 420.49 460.05
  A 0.73 0.63 -6.8 0 0 419.81 459.59
  L 401.91 459.59
  A 0.47 0.41 -5.8 0 0 401.44 460.09
  L 402.76 465.95
  A 1.02 0.81 -5.2 0 0 403.72 466.58
  Z
  M 429.18 466.53
  L 444.00 466.41
  Q 444.45 466.41 444.95 466.62
  Q 445.92 467.03 446.88 466.53
  A 0.65 0.62 67.9 0 0 447.18 465.77
  L 445.58 460.77
  A 1.96 1.77 -7.7 0 0 443.77 459.53
  L 427.19 459.52
  A 1.15 1.13 81.1 0 0 426.12 461.01
  L 427.41 465.15
  A 1.98 1.80 80.2 0 0 429.18 466.53
  Z
  M 453.05 466.27
  Q 462.43 467.15 471.63 466.62
  A 0.46 0.45 -6.2 0 0 472.06 466.10
  Q 471.63 463.34 469.98 460.45
  A 1.81 1.77 74.8 0 0 468.43 459.54
  L 452.06 459.52
  A 1.19 1.19 -9.9 0 0 450.94 461.11
  L 452.70 466.01
  A 0.41 0.40 -7.8 0 0 453.05 466.27
  Z
  M 136.42 476.31
  L 173.45 476.44
  A 0.75 0.65 7.2 0 0 174.15 475.97
  L 175.89 469.91
  A 0.43 0.39 7.2 0 0 175.47 469.41
  L 140.07 469.30
  A 2.08 1.80 9.5 0 0 138.21 470.44
  L 136.04 475.79
  A 0.40 0.38 10.4 0 0 136.42 476.31
  Z
  M 180.42 476.31
  L 199.22 476.26
  A 0.66 0.64 6.0 0 0 199.86 475.76
  L 201.06 470.12
  A 0.47 0.43 8.1 0 0 200.63 469.59
  Q 191.46 468.87 182.21 469.56
  A 0.80 0.64 3.5 0 0 181.52 470.05
  L 179.96 475.75
  A 0.47 0.44 7.5 0 0 180.42 476.31
  Z
  M 205.79 476.31
  L 224.80 476.14
  A 0.64 0.54 2.4 0 0 225.43 475.65
  L 226.13 469.89
  A 0.53 0.47 4.8 0 0 225.63 469.36
  Q 216.48 468.92 207.27 469.62
  A 0.73 0.66 3.6 0 0 206.63 470.13
  L 205.35 475.78
  A 0.45 0.43 6.2 0 0 205.79 476.31
  Z
  M 231.72 476.31
  L 250.33 476.19
  A 0.60 0.57 2.7 0 0 250.91 475.69
  L 251.62 470.40
  A 0.91 0.90 -86.4 0 0 250.72 469.37
  L 232.78 469.47
  A 0.67 0.61 5.2 0 0 232.13 469.96
  L 230.94 475.44
  A 0.78 0.73 5.1 0 0 231.72 476.31
  Z
  M 276.8696 470.1950
  A 0.68 0.68 0.0 0 0 276.1920 469.5127
  L 257.4921 469.4474
  A 0.68 0.68 0.0 0 0 256.8097 470.1250
  L 256.7904 475.6450
  A 0.68 0.68 0.0 0 0 257.4680 476.3273
  L 276.1679 476.3926
  A 0.68 0.68 0.0 0 0 276.8503 475.7150
  L 276.8696 470.1950
  Z
  M 302.0501 470.0148
  A 0.58 0.58 0.0 0 0 301.4721 469.4328
  L 282.6922 469.3672
  A 0.58 0.58 0.0 0 0 282.1102 469.9452
  L 282.0899 475.7452
  A 0.58 0.58 0.0 0 0 282.6679 476.3272
  L 301.4478 476.3928
  A 0.58 0.58 0.0 0 0 302.0298 475.8148
  L 302.0501 470.0148
  Z
  M 327.5888 469.6154
  A 0.26 0.26 0.0 0 0 327.3279 469.3563
  L 308.0080 469.4237
  A 0.26 0.26 0.0 0 0 307.7489 469.6846
  L 307.7712 476.0846
  A 0.26 0.26 0.0 0 0 308.0321 476.3437
  L 327.3520 476.2763
  A 0.26 0.26 0.0 0 0 327.6111 476.0154
  L 327.5888 469.6154
  Z
  M 353.0547 470.0124
  A 0.62 0.62 0.0 0 0 352.4380 469.3892
  L 333.6782 469.2909
  A 0.62 0.62 0.0 0 0 333.0550 469.9077
  L 333.0253 475.5876
  A 0.62 0.62 0.0 0 0 333.6420 476.2108
  L 352.4018 476.3091
  A 0.62 0.62 0.0 0 0 353.0250 475.6923
  L 353.0547 470.0124
  Z
  M 359.31 476.23
  C 365.40 476.22 372.64 477.01 378.56 476.29
  A 0.49 0.45 -10.0 0 0 378.98 475.74
  L 377.75 470.14
  A 0.69 0.65 -3.2 0 0 377.13 469.62
  Q 367.98 468.96 358.79 469.47
  A 0.54 0.48 -3.8 0 0 358.28 469.99
  L 358.72 475.74
  A 0.60 0.53 -2.1 0 0 359.31 476.23
  Z
  M 385.04 476.24
  L 403.77 476.51
  A 0.69 0.68 -6.1 0 0 404.46 475.67
  L 403.12 470.29
  A 1.16 1.13 -6.4 0 0 402.01 469.43
  L 384.49 469.26
  A 1.03 0.96 -4.6 0 0 383.45 470.39
  L 384.46 475.79
  A 0.60 0.54 -4.6 0 0 385.04 476.24
  Z
  M 410.38 476.15
  L 429.00 476.34
  A 0.90 0.88 -7.5 0 0 429.89 475.21
  L 428.55 470.74
  A 2.24 2.02 -7.4 0 0 426.45 469.29
  L 409.48 469.26
  A 0.76 0.70 -6.0 0 0 408.72 470.12
  L 410.07 475.92
  A 0.32 0.29 -5.5 0 0 410.38 476.15
  Z
  M 436.27 476.21
  C 449.33 476.35 462.38 476.55 475.48 476.48
  A 0.44 0.44 -4.6 0 0 475.91 475.98
  Q 475.41 472.64 473.32 469.80
  A 1.00 0.98 71.6 0 0 472.52 469.39
  L 434.45 469.35
  A 0.44 0.39 -6.9 0 0 434.01 469.85
  L 435.56 475.76
  A 0.76 0.60 -5.7 0 0 436.27 476.21
  Z
  M 185.33 479.19
  L 136.05 479.08
  A 1.63 1.48 9.4 0 0 134.54 480.06
  L 132.57 485.47
  A 0.38 0.35 9.7 0 0 132.93 485.95
  L 183.22 485.99
  A 0.83 0.82 -76.3 0 0 183.95 485.54
  Q 185.39 482.68 185.71 479.62
  A 0.39 0.38 -86.7 0 0 185.33 479.19
  Z
  M 210.56 479.16
  L 192.26 479.18
  A 0.74 0.64 5.9 0 0 191.56 479.67
  L 190.10 485.47
  A 0.46 0.41 6.3 0 0 190.56 485.98
  L 209.46 485.99
  A 0.81 0.79 -77.0 0 0 210.18 485.53
  Q 211.54 482.69 211.14 479.68
  A 0.60 0.58 86.1 0 0 210.56 479.16
  Z
  M 236.80 479.20
  L 218.03 479.17
  A 0.70 0.64 5.6 0 0 217.36 479.67
  L 216.09 485.48
  A 0.46 0.41 5.5 0 0 216.55 485.98
  L 235.77 485.99
  A 0.80 0.77 3.2 0 0 236.56 485.31
  L 237.27 479.73
  A 0.48 0.47 -86.7 0 0 236.80 479.20
  Z
  M 242.94 480.17
  L 242.19 485.42
  A 0.46 0.44 3.8 0 0 242.65 485.92
  L 262.06 485.92
  A 0.61 0.53 1.0 0 0 262.67 485.41
  L 262.90 479.58
  A 0.54 0.49 1.0 0 0 262.36 479.07
  L 244.33 479.04
  A 1.42 1.31 3.7 0 0 242.94 480.17
  Z
  M 288.94 479.58
  A 0.56 0.56 0.0 0 0 288.38 479.02
  L 269.02 479.02
  A 0.56 0.56 0.0 0 0 268.46 479.58
  L 268.46 485.44
  A 0.56 0.56 0.0 0 0 269.02 486.00
  L 288.38 486.00
  A 0.56 0.56 0.0 0 0 288.94 485.44
  L 288.94 479.58
  Z
  M 314.95 479.77
  A 0.75 0.75 0.0 0 0 314.20 479.02
  L 295.16 479.02
  A 0.75 0.75 0.0 0 0 294.41 479.77
  L 294.41 485.25
  A 0.75 0.75 0.0 0 0 295.16 486.00
  L 314.20 486.00
  A 0.75 0.75 0.0 0 0 314.95 485.25
  L 314.95 479.77
  Z
  M 340.8451 479.6921
  A 0.69 0.69 0.0 0 0 340.1539 479.0033
  L 321.0539 479.0367
  A 0.69 0.69 0.0 0 0 320.3651 479.7279
  L 320.3749 485.3279
  A 0.69 0.69 0.0 0 0 321.0661 486.0167
  L 340.1661 485.9833
  A 0.69 0.69 0.0 0 0 340.8549 485.2921
  L 340.8451 479.6921
  Z
  M 365.01 479.17
  L 346.91 479.10
  A 0.58 0.56 -86.1 0 0 346.34 479.61
  Q 346.03 482.47 346.76 485.43
  A 0.67 0.63 82.3 0 0 347.38 485.93
  L 366.58 485.93
  A 0.49 0.43 -4.4 0 0 367.07 485.42
  L 366.22 480.16
  A 1.25 1.18 -4.1 0 0 365.01 479.17
  Z
  M 391.21 479.19
  L 372.65 479.09
  A 0.56 0.54 -88.3 0 0 372.11 479.62
  Q 371.94 482.60 372.88 485.50
  A 0.70 0.69 80.7 0 0 373.54 485.98
  L 392.71 485.97
  A 0.44 0.42 -5.3 0 0 393.15 485.47
  L 392.07 479.87
  A 0.90 0.84 -4.7 0 0 391.21 479.19
  Z
  M 417.03 479.21
  L 398.28 479.18
  A 0.47 0.43 -5.4 0 0 397.81 479.70
  L 398.99 485.45
  A 0.71 0.61 -4.9 0 0 399.67 485.94
  L 418.72 485.96
  A 0.45 0.40 -6.0 0 0 419.17 485.47
  L 417.73 479.71
  A 0.74 0.67 -6.6 0 0 417.03 479.21
  Z
  M 476.40 479.19
  L 424.30 479.06
  A 0.65 0.59 -7.4 0 0 423.66 479.82
  L 425.35 485.53
  A 0.74 0.63 -6.6 0 0 426.04 485.99
  L 479.09 485.95
  A 0.38 0.36 -9.9 0 0 479.46 485.46
  L 477.16 479.65
  A 0.85 0.71 -8.9 0 0 476.40 479.19
  Z
  M 129.11 496.00
  L 129.32 497.02
  A 0.79 0.56 -3.7 0 0 130.05 497.47
  C 135.86 497.56 142.04 497.06 147.75 497.48
  Q 149.31 497.59 149.21 496.00
  L 151.60 489.47
  A 0.34 0.33 9.5 0 0 151.27 489.03
  L 132.15 489.05
  A 0.92 0.91 -74.0 0 0 131.37 489.49
  Q 129.51 492.51 129.11 496.00
  Z
  M 158.00 496.04
  Q 157.40 496.35 157.45 496.99
  A 0.62 0.53 -2.0 0 0 158.06 497.48
  L 173.44 497.48
  A 0.56 0.52 1.6 0 0 174.00 496.99
  Q 174.03 496.28 173.67 496.23
  Q 177.89 494.45 177.66 489.60
  A 0.54 0.54 88.9 0 0 177.12 489.08
  L 158.02 489.03
  A 0.75 0.70 8.6 0 0 157.32 489.51
  L 155.35 495.32
  A 0.44 0.40 -78.1 0 0 155.69 495.90
  L 158.00 496.04
  Z
  M 184.00 496.04
  L 184.01 497.12
  A 0.53 0.49 -1.1 0 0 184.56 497.61
  Q 197.86 497.27 200.99 497.52
  Q 203.16 497.69 202.46 496.00
  L 204.06 489.58
  A 0.43 0.40 6.7 0 0 203.63 489.08
  L 184.67 489.02
  A 1.22 1.07 6.4 0 0 183.52 489.82
  L 182.10 495.21
  A 0.57 0.56 16.9 0 0 182.47 495.89
  Q 183.23 496.14 184.00 496.04
  Z
  M 211.50 496.04
  Q 210.14 495.99 210.21 496.99
  A 0.62 0.53 -2.0 0 0 210.82 497.48
  C 213.45 497.49 233.66 497.93 234.41 497.21
  Q 234.86 496.78 234.63 496.11
  Q 236.82 493.26 236.63 489.58
  A 0.54 0.52 -1.1 0 0 236.09 489.08
  L 210.74 489.09
  A 0.71 0.61 4.9 0 0 210.06 489.58
  L 208.79 495.42
  A 0.49 0.44 7.1 0 0 209.26 495.96
  L 211.50 496.04
  Z
  M 244.00 496.04
  Q 243.38 496.32 243.46 497.08
  A 0.60 0.54 -3.2 0 0 244.06 497.56
  Q 287.25 497.35 330.43 497.22
  C 335.24 497.21 343.89 497.81 350.70 497.21
  A 0.59 0.59 90.0 0 0 351.24 496.67
  L 351.31 496.04
  Q 352.74 493.03 352.01 489.66
  A 0.83 0.83 84.0 0 0 351.20 489.00
  L 243.24 489.00
  A 0.84 0.78 3.1 0 0 242.41 489.69
  L 241.76 495.45
  A 0.51 0.47 3.8 0 0 242.25 495.97
  L 244.00 496.04
  Z
  M 357.92 489.19
  A 0.45 0.43 87.0 0 0 357.49 489.69
  L 358.06 495.46
  A 0.57 0.55 87.1 0 0 358.61 495.97
  L 384.60 495.94
  A 0.49 0.44 -4.0 0 0 385.09 495.43
  L 384.12 489.54
  A 0.69 0.58 -3.8 0 0 383.45 489.05
  L 357.92 489.19
  Z
  M 392.19 495.83
  L 411.13 495.89
  A 0.77 0.74 83.5 0 0 411.85 494.95
  L 410.67 489.75
  A 0.96 0.94 83.5 0 0 409.75 489.00
  L 390.76 489.02
  A 0.54 0.52 1.7 0 0 390.22 489.51
  Q 390.01 492.67 391.44 495.37
  A 0.86 0.84 76.0 0 0 392.19 495.83
  Z
  M 440.35 495.79
  L 460.49 495.90
  A 0.64 0.62 -9.2 0 0 461.10 495.08
  L 459.36 489.85
  A 1.25 1.18 -8.7 0 0 458.19 489.04
  L 438.39 489.08
  A 0.42 0.39 -7.4 0 0 437.98 489.58
  L 439.44 495.12
  A 0.97 0.89 -6.2 0 0 440.35 495.79
  Z
  M 435.4923 492.1544
  A 0.30 0.30 0.0 0 0 435.1944 491.8523
  L 417.3548 491.7278
  A 0.30 0.30 0.0 0 0 417.0527 492.0257
  L 417.0277 495.6056
  A 0.30 0.30 0.0 0 0 417.3256 495.9077
  L 435.1652 496.0322
  A 0.30 0.30 0.0 0 0 435.4673 495.7343
  L 435.4923 492.1544
  Z
  M 466.43 495.83
  L 482.34 495.91
  A 0.58 0.58 4.4 0 0 482.93 495.41
  Q 483.16 493.59 481.88 492.30
  A 1.29 1.17 -20.5 0 0 481.00 491.95
  L 464.71 491.75
  A 0.56 0.54 2.2 0 0 464.15 492.25
  Q 463.98 494.29 465.54 495.52
  A 1.45 1.36 -24.0 0 0 466.43 495.83
  Z"
/>
<path fill="#282a2f" d="
  M 148.03 443.81
  A 1.97 1.95 -71.5 0 1 149.60 443.02
  L 166.68 443.02
  A 0.56 0.54 -2.2 0 1 167.24 443.52
  Q 167.53 446.89 164.01 446.93
  Q 155.88 447.03 147.78 446.98
  A 0.59 0.53 -2.1 0 1 147.20 446.49
  Q 147.09 445.09 148.03 443.81
  Z"
/>
<path fill="#282a2f" d="
  M 175.05 443.61
  A 1.23 1.22 -74.0 0 1 176.09 443.03
  L 193.69 443.02
  A 0.54 0.52 -1.1 0 1 194.23 443.52
  Q 194.30 445.10 193.54 446.42
  A 0.91 0.89 15.0 0 1 192.76 446.86
  L 174.92 446.93
  A 0.62 0.59 -4.3 0 1 174.31 446.43
  Q 174.12 445.10 175.05 443.61
  Z"
/>
<path fill="#282a2f" d="
  M 202.18 443.44
  A 0.72 0.56 6.2 0 1 202.84 443.03
  L 220.47 443.02
  A 0.64 0.60 -4.9 0 1 221.09 443.51
  Q 221.40 445.03 220.75 446.40
  A 0.81 0.79 11.9 0 1 220.02 446.86
  L 201.81 446.96
  A 0.49 0.41 6.5 0 1 201.31 446.44
  L 202.18 443.44
  Z"
/>
<rect fill="#282a2f" x="-9.74" y="-1.99" transform="translate(238.37,445.00) rotate(-0.1)" width="19.48" height="3.98" rx="0.27"/>
<rect fill="#282a2f" x="-9.81" y="-1.99" transform="translate(265.43,445.00) rotate(-0.2)" width="19.62" height="3.98" rx="0.94"/>
<rect fill="#282a2f" x="-9.75" y="-2.00" transform="translate(292.48,445.00) rotate(-0.1)" width="19.50" height="4.00" rx="0.87"/>
<rect fill="#282a2f" x="309.76" y="443.01" width="19.50" height="4.00" rx="0.75"/>
<rect fill="#282a2f" x="336.92" y="443.01" width="19.44" height="3.98" rx="0.68"/>
<rect fill="#282a2f" x="-9.76" y="-1.99" transform="translate(373.62,445.00) rotate(0.1)" width="19.52" height="3.98" rx="0.74"/>
<rect fill="#282a2f" x="-9.75" y="-1.97" transform="translate(400.70,445.00) rotate(0.2)" width="19.50" height="3.94" rx="0.26"/>
<path fill="#282a2f" d="
  M 420.82 446.87
  C 418.40 446.78 417.73 445.86 417.69 443.57
  A 0.51 0.50 -0.6 0 1 418.20 443.06
  L 436.09 443.05
  A 0.96 0.91 -15.6 0 1 436.88 443.47
  Q 437.77 444.86 437.84 446.39
  A 0.53 0.50 -2.2 0 1 437.33 446.91
  Q 429.05 447.19 420.82 446.87
  Z"
/>
<path fill="#282a2f" d="
  M 448.12 446.87
  C 445.64 446.78 444.56 446.03 444.70 443.47
  A 0.54 0.52 1.1 0 1 445.24 442.97
  L 462.76 442.98
  A 1.29 1.08 -18.5 0 1 463.63 443.32
  Q 464.87 444.60 464.87 446.39
  A 0.53 0.53 -5.0 0 1 464.35 446.91
  Q 456.20 447.18 448.12 446.87
  Z"
/>
<path fill="#32343b" d="
  M 143.91 456.71
  A 0.55 0.52 12.0 0 1 143.42 455.99
  L 145.56 450.71
  A 0.92 0.84 5.1 0 1 146.26 450.18
  C 151.99 449.25 157.90 450.30 163.77 449.76
  A 0.66 0.65 -83.4 0 1 164.44 450.62
  L 162.63 455.96
  A 1.07 1.06 -83.3 0 1 161.71 456.69
  Q 153.57 457.33 143.91 456.71
  Z"
/>
<path fill="#32343b" d="
  M 168.78 456.72
  A 0.74 0.68 11.5 0 1 168.12 455.80
  L 170.05 450.42
  A 0.81 0.66 8.0 0 1 170.78 449.98
  L 188.16 450.08
  A 0.44 0.42 8.6 0 1 188.59 450.63
  L 186.81 456.21
  A 0.83 0.70 5.4 0 1 186.11 456.70
  Q 178.06 457.33 168.78 456.72
  Z"
/>
<path fill="#32343b" d="
  M 210.49 456.80
  C 204.63 457.17 198.78 457.09 192.97 456.70
  A 0.49 0.41 8.5 0 1 192.51 456.18
  L 193.99 450.53
  A 0.78 0.61 5.1 0 1 194.70 450.07
  L 212.08 449.93
  A 0.49 0.48 1.1 0 1 212.57 450.43
  Q 212.45 453.57 211.21 456.31
  A 0.85 0.84 10.4 0 1 210.49 456.80
  Z"
/>
<path fill="#32343b" d="
  M 217.34 456.32
  Q 216.83 453.45 218.02 450.57
  A 0.79 0.79 -79.0 0 1 218.73 450.09
  L 236.33 449.91
  A 0.51 0.50 90.0 0 1 236.83 450.42
  Q 236.80 453.56 235.68 456.32
  A 0.77 0.73 -78.8 0 1 234.99 456.81
  L 217.93 456.83
  A 0.61 0.58 84.3 0 1 217.34 456.32
  Z"
/>
<rect fill="#32343b" x="-9.53" y="-3.52" transform="translate(299.84,453.43) rotate(0.7)" width="19.06" height="7.04" rx="0.94"/>
<rect fill="#32343b" x="-9.55" y="-3.50" transform="translate(324.27,453.45) rotate(-0.1)" width="19.10" height="7.00" rx="0.88"/>
<rect fill="#32343b" x="-9.52" y="-3.49" transform="translate(348.55,453.42) rotate(-0.3)" width="19.04" height="6.98" rx="0.62"/>
<rect fill="#32343b" x="-9.59" y="-3.50" transform="translate(372.83,453.41) rotate(0.1)" width="19.18" height="7.00" rx="0.80"/>
<path fill="#32343b" d="
  M 431.46 456.77
  C 425.52 457.35 420.09 456.68 413.75 456.74
  A 0.83 0.83 -14.6 0 1 413.00 456.30
  Q 411.56 453.55 411.41 450.40
  A 0.48 0.48 88.9 0 1 411.89 449.90
  L 429.43 450.01
  A 0.71 0.66 -7.6 0 1 430.10 450.48
  L 431.85 456.23
  A 0.44 0.42 -10.4 0 1 431.46 456.77
  Z"
/>
<path fill="#32343b" d="
  M 437.87 456.79
  A 1.97 1.93 -8.6 0 1 436.02 455.46
  L 434.43 450.50
  A 0.39 0.36 -9.3 0 1 434.80 450.02
  L 465.26 449.96
  A 1.34 1.30 -10.8 0 1 466.51 450.78
  L 468.68 456.23
  A 0.50 0.50 -10.7 0 1 468.21 456.91
  L 437.87 456.79
  Z"
/>
<rect fill="#32343b" x="241.66" y="450.01" width="19.14" height="6.94" rx="0.27"/>
<rect fill="#32343b" x="-9.52" y="-3.48" transform="translate(275.54,453.48) rotate(0.1)" width="19.04" height="6.96" rx="0.44"/>
<path fill="#32343b" d="
  M 389.53 456.71
  A 1.45 1.44 -5.4 0 1 388.12 455.55
  L 387.12 450.53
  A 0.43 0.42 -5.5 0 1 387.54 450.03
  L 405.18 450.02
  A 0.71 0.62 -6.2 0 1 405.85 450.49
  L 407.25 455.80
  A 0.83 0.82 -7.0 0 1 406.44 456.83
  L 389.53 456.71
  Z"
/>
<path fill="#32343b" d="
  M 144.01 466.60
  C 143.32 466.58 141.39 466.74 140.22 466.57
  A 0.45 0.43 14.1 0 1 139.85 465.99
  L 141.68 461.09
  Q 142.32 459.40 144.69 459.41
  L 173.12 459.57
  A 0.45 0.44 -86.6 0 1 173.56 460.07
  Q 173.17 463.32 171.77 466.03
  A 0.88 0.86 12.2 0 1 171.03 466.49
  Q 157.49 467.03 144.01 466.60
  Z"
/>
<path fill="#32343b" d="
  M 177.92 466.56
  A 0.54 0.54 9.2 0 1 177.42 465.87
  L 178.83 461.01
  A 2.29 2.18 7.5 0 1 181.01 459.42
  L 196.92 459.45
  A 1.37 1.29 7.8 0 1 198.26 461.10
  L 196.85 465.91
  A 0.73 0.70 6.2 0 1 196.20 466.41
  Q 187.06 467.01 177.92 466.56
  Z"
/>
<path fill="#32343b" d="
  M 221.44 466.43
  C 215.53 466.90 209.84 466.50 203.00 466.46
  A 0.43 0.40 5.9 0 1 202.57 465.97
  L 203.70 460.86
  A 2.15 1.87 7.5 0 1 205.89 459.41
  Q 214.12 459.94 222.13 459.44
  A 0.90 0.89 3.5 0 1 223.07 460.49
  L 222.04 465.91
  A 0.67 0.64 2.7 0 1 221.44 466.43
  Z"
/>
<path fill="#32343b" d="
  M 246.35 466.42
  C 240.20 466.67 234.14 466.54 228.01 466.46
  A 0.47 0.45 3.9 0 1 227.55 465.96
  L 228.18 461.40
  Q 228.45 459.41 230.88 459.41
  L 246.25 459.44
  A 1.52 1.39 4.5 0 1 247.77 461.07
  L 246.93 465.91
  A 0.61 0.61 3.4 0 1 246.35 466.42
  Z"
/>
<rect fill="#32343b" x="-9.79" y="-3.57" transform="translate(262.56,463.09) rotate(-0.3)" width="19.58" height="7.14" rx="0.97"/>
<rect fill="#32343b" x="-9.68" y="-3.60" transform="translate(287.44,463.13) rotate(-0.3)" width="19.36" height="7.20" rx="0.99"/>
<rect fill="#32343b" x="-9.75" y="-3.58" transform="translate(312.25,463.09) rotate(0.2)" width="19.50" height="7.16" rx="0.92"/>
<rect fill="#32343b" x="327.34" y="459.55" width="19.66" height="7.14" rx="1.05"/>
<rect fill="#32343b" x="-9.77" y="-3.54" transform="translate(361.98,463.11) rotate(-0.3)" width="19.54" height="7.08" rx="0.26"/>
<path fill="#32343b" d="
  M 378.11 466.16
  Q 376.60 463.37 376.69 460.09
  A 0.48 0.48 -89.4 0 1 377.17 459.62
  L 395.27 459.63
  A 0.66 0.63 -6.0 0 1 395.91 460.12
  L 397.15 465.81
  A 0.79 0.77 -6.2 0 1 396.38 466.75
  L 379.05 466.73
  A 1.07 1.06 76.0 0 1 378.11 466.16
  Z"
/>
<path fill="#32343b" d="
  M 403.72 466.58
  A 1.02 0.81 -5.2 0 1 402.76 465.95
  L 401.44 460.09
  A 0.47 0.41 -5.8 0 1 401.91 459.59
  L 419.81 459.59
  A 0.73 0.63 -6.8 0 1 420.49 460.05
  L 422.14 465.96
  A 0.43 0.39 -7.2 0 1 421.72 466.46
  L 403.72 466.58
  Z"
/>
<path fill="#32343b" d="
  M 429.18 466.53
  A 1.98 1.80 80.2 0 1 427.41 465.15
  L 426.12 461.01
  A 1.15 1.13 81.1 0 1 427.19 459.52
  L 443.77 459.53
  A 1.96 1.77 -7.7 0 1 445.58 460.77
  L 447.18 465.77
  A 0.65 0.62 67.9 0 1 446.88 466.53
  Q 445.92 467.03 444.95 466.62
  Q 444.45 466.41 444.00 466.41
  L 429.18 466.53
  Z"
/>
<path fill="#32343b" d="
  M 453.05 466.27
  A 0.41 0.40 -7.8 0 1 452.70 466.01
  L 450.94 461.11
  A 1.19 1.19 -9.9 0 1 452.06 459.52
  L 468.43 459.54
  A 1.81 1.77 74.8 0 1 469.98 460.45
  Q 471.63 463.34 472.06 466.10
  A 0.46 0.45 -6.2 0 1 471.63 466.62
  Q 462.43 467.15 453.05 466.27
  Z"
/>
<path fill="#32343b" d="
  M 136.42 476.31
  A 0.40 0.38 10.4 0 1 136.04 475.79
  L 138.21 470.44
  A 2.08 1.80 9.5 0 1 140.07 469.30
  L 175.47 469.41
  A 0.43 0.39 7.2 0 1 175.89 469.91
  L 174.15 475.97
  A 0.75 0.65 7.2 0 1 173.45 476.44
  L 136.42 476.31
  Z"
/>
<path fill="#32343b" d="
  M 180.42 476.31
  A 0.47 0.44 7.5 0 1 179.96 475.75
  L 181.52 470.05
  A 0.80 0.64 3.5 0 1 182.21 469.56
  Q 191.46 468.87 200.63 469.59
  A 0.47 0.43 8.1 0 1 201.06 470.12
  L 199.86 475.76
  A 0.66 0.64 6.0 0 1 199.22 476.26
  L 180.42 476.31
  Z"
/>
<path fill="#32343b" d="
  M 205.79 476.31
  A 0.45 0.43 6.2 0 1 205.35 475.78
  L 206.63 470.13
  A 0.73 0.66 3.6 0 1 207.27 469.62
  Q 216.48 468.92 225.63 469.36
  A 0.53 0.47 4.8 0 1 226.13 469.89
  L 225.43 475.65
  A 0.64 0.54 2.4 0 1 224.80 476.14
  L 205.79 476.31
  Z"
/>
<path fill="#32343b" d="
  M 231.72 476.31
  A 0.78 0.73 5.1 0 1 230.94 475.44
  L 232.13 469.96
  A 0.67 0.61 5.2 0 1 232.78 469.47
  L 250.72 469.37
  A 0.91 0.90 -86.4 0 1 251.62 470.40
  L 250.91 475.69
  A 0.60 0.57 2.7 0 1 250.33 476.19
  L 231.72 476.31
  Z"
/>
<rect fill="#32343b" x="-10.03" y="-3.44" transform="translate(266.83,472.92) rotate(0.2)" width="20.06" height="6.88" rx="0.68"/>
<rect fill="#32343b" x="-9.97" y="-3.48" transform="translate(292.07,472.88) rotate(0.2)" width="19.94" height="6.96" rx="0.58"/>
<rect fill="#32343b" x="-9.92" y="-3.46" transform="translate(317.68,472.85) rotate(-0.2)" width="19.84" height="6.92" rx="0.26"/>
<rect fill="#32343b" x="-10.00" y="-3.46" transform="translate(343.04,472.80) rotate(0.3)" width="20.00" height="6.92" rx="0.62"/>
<path fill="#32343b" d="
  M 378.56 476.29
  C 372.64 477.01 365.40 476.22 359.31 476.23
  A 0.60 0.53 -2.1 0 1 358.72 475.74
  L 358.28 469.99
  A 0.54 0.48 -3.8 0 1 358.79 469.47
  Q 367.98 468.96 377.13 469.62
  A 0.69 0.65 -3.2 0 1 377.75 470.14
  L 378.98 475.74
  A 0.49 0.45 -10.0 0 1 378.56 476.29
  Z"
/>
<path fill="#32343b" d="
  M 385.04 476.24
  A 0.60 0.54 -4.6 0 1 384.46 475.79
  L 383.45 470.39
  A 1.03 0.96 -4.6 0 1 384.49 469.26
  L 402.01 469.43
  A 1.16 1.13 -6.4 0 1 403.12 470.29
  L 404.46 475.67
  A 0.69 0.68 -6.1 0 1 403.77 476.51
  L 385.04 476.24
  Z"
/>
<path fill="#32343b" d="
  M 410.38 476.15
  A 0.32 0.29 -5.5 0 1 410.07 475.92
  L 408.72 470.12
  A 0.76 0.70 -6.0 0 1 409.48 469.26
  L 426.45 469.29
  A 2.24 2.02 -7.4 0 1 428.55 470.74
  L 429.89 475.21
  A 0.90 0.88 -7.5 0 1 429.00 476.34
  L 410.38 476.15
  Z"
/>
<path fill="#32343b" d="
  M 475.48 476.48
  C 462.38 476.55 449.33 476.35 436.27 476.21
  A 0.76 0.60 -5.7 0 1 435.56 475.76
  L 434.01 469.85
  A 0.44 0.39 -6.9 0 1 434.45 469.35
  L 472.52 469.39
  A 1.00 0.98 71.6 0 1 473.32 469.80
  Q 475.41 472.64 475.91 475.98
  A 0.44 0.44 -4.6 0 1 475.48 476.48
  Z"
/>
<path fill="#32343b" d="
  M 185.33 479.19
  A 0.39 0.38 -86.7 0 1 185.71 479.62
  Q 185.39 482.68 183.95 485.54
  A 0.83 0.82 -76.3 0 1 183.22 485.99
  L 132.93 485.95
  A 0.38 0.35 9.7 0 1 132.57 485.47
  L 134.54 480.06
  A 1.63 1.48 9.4 0 1 136.05 479.08
  L 185.33 479.19
  Z"
/>
<path fill="#32343b" d="
  M 211.14 479.68
  Q 211.54 482.69 210.18 485.53
  A 0.81 0.79 -77.0 0 1 209.46 485.99
  L 190.56 485.98
  A 0.46 0.41 6.3 0 1 190.10 485.47
  L 191.56 479.67
  A 0.74 0.64 5.9 0 1 192.26 479.18
  L 210.56 479.16
  A 0.60 0.58 86.1 0 1 211.14 479.68
  Z"
/>
<path fill="#32343b" d="
  M 236.80 479.20
  A 0.48 0.47 -86.7 0 1 237.27 479.73
  L 236.56 485.31
  A 0.80 0.77 3.2 0 1 235.77 485.99
  L 216.55 485.98
  A 0.46 0.41 5.5 0 1 216.09 485.48
  L 217.36 479.67
  A 0.70 0.64 5.6 0 1 218.03 479.17
  L 236.80 479.20
  Z"
/>
<path fill="#32343b" d="
  M 242.94 480.17
  A 1.42 1.31 3.7 0 1 244.33 479.04
  L 262.36 479.07
  A 0.54 0.49 1.0 0 1 262.90 479.58
  L 262.67 485.41
  A 0.61 0.53 1.0 0 1 262.06 485.92
  L 242.65 485.92
  A 0.46 0.44 3.8 0 1 242.19 485.42
  L 242.94 480.17
  Z"
/>
<rect fill="#32343b" x="268.46" y="479.02" width="20.48" height="6.98" rx="0.56"/>
<rect fill="#32343b" x="294.41" y="479.02" width="20.54" height="6.98" rx="0.75"/>
<rect fill="#32343b" x="-10.24" y="-3.49" transform="translate(330.61,482.51) rotate(-0.1)" width="20.48" height="6.98" rx="0.69"/>
<path fill="#32343b" d="
  M 365.01 479.17
  A 1.25 1.18 -4.1 0 1 366.22 480.16
  L 367.07 485.42
  A 0.49 0.43 -4.4 0 1 366.58 485.93
  L 347.38 485.93
  A 0.67 0.63 82.3 0 1 346.76 485.43
  Q 346.03 482.47 346.34 479.61
  A 0.58 0.56 -86.1 0 1 346.91 479.10
  L 365.01 479.17
  Z"
/>
<path fill="#32343b" d="
  M 391.21 479.19
  A 0.90 0.84 -4.7 0 1 392.07 479.87
  L 393.15 485.47
  A 0.44 0.42 -5.3 0 1 392.71 485.97
  L 373.54 485.98
  A 0.70 0.69 80.7 0 1 372.88 485.50
  Q 371.94 482.60 372.11 479.62
  A 0.56 0.54 -88.3 0 1 372.65 479.09
  L 391.21 479.19
  Z"
/>
<path fill="#32343b" d="
  M 417.03 479.21
  A 0.74 0.67 -6.6 0 1 417.73 479.71
  L 419.17 485.47
  A 0.45 0.40 -6.0 0 1 418.72 485.96
  L 399.67 485.94
  A 0.71 0.61 -4.9 0 1 398.99 485.45
  L 397.81 479.70
  A 0.47 0.43 -5.4 0 1 398.28 479.18
  L 417.03 479.21
  Z"
/>
<path fill="#32343b" d="
  M 476.40 479.19
  A 0.85 0.71 -8.9 0 1 477.16 479.65
  L 479.46 485.46
  A 0.38 0.36 -9.9 0 1 479.09 485.95
  L 426.04 485.99
  A 0.74 0.63 -6.6 0 1 425.35 485.53
  L 423.66 479.82
  A 0.65 0.59 -7.4 0 1 424.30 479.06
  L 476.40 479.19
  Z"
/>
<path fill="#0f0f12" d="
  M 149.21 496.00
  L 129.11 496.00
  Q 129.51 492.51 131.37 489.49
  A 0.92 0.91 -74.0 0 1 132.15 489.05
  L 151.27 489.03
  A 0.34 0.33 9.5 0 1 151.60 489.47
  L 149.21 496.00
  Z
  M 150.02 491.35
  A 1.02 0.95 7.1 0 0 149.01 490.14
  L 132.29 490.25
  A 0.73 0.70 -80.1 0 0 131.62 490.74
  L 130.63 493.74
  A 0.97 0.93 8.9 0 0 131.56 494.97
  L 148.43 494.98
  A 0.75 0.64 6.5 0 0 149.13 494.51
  L 150.02 491.35
  Z"
/>
<path fill="#32343b" d="
  M 173.67 496.23
  L 158.00 496.04
  L 155.69 495.90
  A 0.44 0.40 -78.1 0 1 155.35 495.32
  L 157.32 489.51
  A 0.75 0.70 8.6 0 1 158.02 489.03
  L 177.12 489.08
  A 0.54 0.54 88.9 0 1 177.66 489.60
  Q 177.89 494.45 173.67 496.23
  Z"
/>
<path fill="#32343b" d="
  M 202.46 496.00
  L 184.00 496.04
  Q 183.23 496.14 182.47 495.89
  A 0.57 0.56 16.9 0 1 182.10 495.21
  L 183.52 489.82
  A 1.22 1.07 6.4 0 1 184.67 489.02
  L 203.63 489.08
  A 0.43 0.40 6.7 0 1 204.06 489.58
  L 202.46 496.00
  Z"
/>
<path fill="#32343b" d="
  M 234.63 496.11
  L 211.50 496.04
  L 209.26 495.96
  A 0.49 0.44 7.1 0 1 208.79 495.42
  L 210.06 489.58
  A 0.71 0.61 4.9 0 1 210.74 489.09
  L 236.09 489.08
  A 0.54 0.52 -1.1 0 1 236.63 489.58
  Q 236.82 493.26 234.63 496.11
  Z"
/>
<path fill="#32343b" d="
  M 351.31 496.04
  L 244.00 496.04
  L 242.25 495.97
  A 0.51 0.47 3.8 0 1 241.76 495.45
  L 242.41 489.69
  A 0.84 0.78 3.1 0 1 243.24 489.00
  L 351.20 489.00
  A 0.83 0.83 84.0 0 1 352.01 489.66
  Q 352.74 493.03 351.31 496.04
  Z"
/>
<path fill="#32343b" d="
  M 357.92 489.19
  L 383.45 489.05
  A 0.69 0.58 -3.8 0 1 384.12 489.54
  L 385.09 495.43
  A 0.49 0.44 -4.0 0 1 384.60 495.94
  L 358.61 495.97
  A 0.57 0.55 87.1 0 1 358.06 495.46
  L 357.49 489.69
  A 0.45 0.43 87.0 0 1 357.92 489.19
  Z"
/>
<path fill="#32343b" d="
  M 391.44 495.37
  Q 390.01 492.67 390.22 489.51
  A 0.54 0.52 1.7 0 1 390.76 489.02
  L 409.75 489.00
  A 0.96 0.94 83.5 0 1 410.67 489.75
  L 411.85 494.95
  A 0.77 0.74 83.5 0 1 411.13 495.89
  L 392.19 495.83
  A 0.86 0.84 76.0 0 1 391.44 495.37
  Z"
/>
<path fill="#32343b" d="
  M 440.35 495.79
  A 0.97 0.89 -6.2 0 1 439.44 495.12
  L 437.98 489.58
  A 0.42 0.39 -7.4 0 1 438.39 489.08
  L 458.19 489.04
  A 1.25 1.18 -8.7 0 1 459.36 489.85
  L 461.10 495.08
  A 0.64 0.62 -9.2 0 1 460.49 495.90
  L 440.35 495.79
  Z"
/>
<path fill="#32343b" d="
  M 150.02 491.35
  L 149.13 494.51
  A 0.75 0.64 6.5 0 1 148.43 494.98
  L 131.56 494.97
  A 0.97 0.93 8.9 0 1 130.63 493.74
  L 131.62 490.74
  A 0.73 0.70 -80.1 0 1 132.29 490.25
  L 149.01 490.14
  A 1.02 0.95 7.1 0 1 150.02 491.35
  Z"
/>
<rect fill="#282a2f" x="-9.22" y="-2.09" transform="translate(426.26,493.88) rotate(0.4)" width="18.44" height="4.18" rx="0.30"/>
<path fill="#282a2f" d="
  M 465.54 495.52
  Q 463.98 494.29 464.15 492.25
  A 0.56 0.54 2.2 0 1 464.71 491.75
  L 481.00 491.95
  A 1.29 1.17 -20.5 0 1 481.88 492.30
  Q 483.16 493.59 482.93 495.41
  A 0.58 0.58 4.4 0 1 482.34 495.91
  L 466.43 495.83
  A 1.45 1.36 -24.0 0 1 465.54 495.52
  Z"
/>
<path fill="#dbdbdb" d="
  M 129.11 496.00
  L 149.21 496.00
  Q 149.31 497.59 147.75 497.48
  C 142.04 497.06 135.86 497.56 130.05 497.47
  A 0.79 0.56 -3.7 0 1 129.32 497.02
  L 129.11 496.00
  Z"
/>
<path fill="#dbdbdb" d="
  M 158.00 496.04
  L 173.67 496.23
  Q 174.03 496.28 174.00 496.99
  A 0.56 0.52 1.6 0 1 173.44 497.48
  L 158.06 497.48
  A 0.62 0.53 -2.0 0 1 157.45 496.99
  Q 157.40 496.35 158.00 496.04
  Z"
/>
<path fill="#dbdbdb" d="
  M 184.00 496.04
  L 202.46 496.00
  Q 203.16 497.69 200.99 497.52
  Q 197.86 497.27 184.56 497.61
  A 0.53 0.49 -1.1 0 1 184.01 497.12
  L 184.00 496.04
  Z"
/>
<path fill="#dbdbdb" d="
  M 211.50 496.04
  L 234.63 496.11
  Q 234.86 496.78 234.41 497.21
  C 233.66 497.93 213.45 497.49 210.82 497.48
  A 0.62 0.53 -2.0 0 1 210.21 496.99
  Q 210.14 495.99 211.50 496.04
  Z"
/>
<path fill="#dbdbdb" d="
  M 244.00 496.04
  L 351.31 496.04
  L 351.24 496.67
  A 0.59 0.59 -87.6 0 1 350.70 497.21
  C 343.89 497.81 335.24 497.21 330.43 497.22
  Q 287.25 497.35 244.06 497.56
  A 0.60 0.54 -3.2 0 1 243.46 497.08
  Q 243.38 496.32 244.00 496.04
  Z"
/>
<path fill="#a0a1a0" d="
  M 381.50 498.79
  L 359.50 499.10
  Q 358.67 497.63 360.25 497.61
  Q 370.84 497.45 381.43 497.76
  Q 383.40 497.81 381.50 498.79
  Z"
/>
<path fill="#a0a1a0" d="
  M 409.00 498.71
  L 393.25 498.96
  L 393.26 498.01
  A 0.55 0.50 -0.0 0 1 393.81 497.51
  L 408.77 497.50
  A 0.70 0.49 -1.2 0 1 409.46 497.96
  Q 409.49 498.36 409.00 498.71
  Z"
/>
<path fill="#a0a1a0" d="
  M 435.10 498.33
  Q 427.22 499.32 419.44 498.40
  Q 427.23 496.23 435.10 498.33
  Z"
/>
<path fill="#a0a1a0" d="
  M 461.04 498.30
  Q 450.55 499.12 440.25 498.71
  Q 440.39 497.67 442.07 497.59
  Q 453.38 497.10 461.04 498.30
  Z"
/>
<path fill="#a0a1a0" d="
  M 478.00 498.71
  L 465.96 498.40
  Q 471.84 496.91 477.94 497.50
  A 0.65 0.49 5.8 0 1 478.53 498.05
  Q 478.50 498.47 478.00 498.71
  Z"
/>
<path fill="#a0a1a0" d="
  M 361.99 505.27
  L 279.25 505.04
  Q 264.65 504.52 250.07 505.60
  Q 250.83 503.50 253.63 503.67
  Q 255.78 503.81 255.89 503.81
  Q 304.91 503.32 353.93 503.77
  C 355.52 503.78 360.22 503.45 361.46 504.26
  Q 362.24 504.78 361.99 505.27
  Z"
/>
<path fill="#b6b7ba" d="
  M 279.25 505.04
  Q 279.15 505.57 279.31 506.07
  A 1.30 0.97 9.3 0 0 279.96 506.74
  Q 298.76 515.66 317.45 524.79
  Q 320.16 526.12 321.28 526.91
  Q 285.39 527.13 249.56 526.97
  C 245.96 526.96 247.42 524.36 247.66 522.45
  Q 248.68 514.38 250.07 505.60
  Q 264.65 504.52 279.25 505.04
  Z"
/>
<path fill="#c5c7c6" d="
  M 279.25 505.04
  L 361.99 505.27
  L 364.82 525.41
  A 1.37 1.33 -3.6 0 1 363.45 526.92
  L 321.28 526.91
  Q 320.16 526.12 317.45 524.79
  Q 298.76 515.66 279.96 506.74
  A 1.30 0.97 9.3 0 1 279.31 506.07
  Q 279.15 505.57 279.25 505.04
  Z"
/>
<path fill="#7c7c7c" d="
  M 366.25 533.93
  L 246.25 533.90
  Q 246.40 532.26 247.82 532.26
  C 286.70 532.24 325.62 531.80 364.50 532.17
  Q 366.10 532.18 366.25 533.93
  Z"
/>
<path fill="#ffffff" d="
  M 246.25 533.90
  L 366.25 533.93
  C 426.74 533.97 487.22 534.33 547.71 534.12
  L 547.46 536.37
  A 1.84 1.60 -86.2 0 1 545.84 538.00
  Q 306.74 538.00 67.97 538.00
  C 65.23 538.00 63.41 537.47 64.29 534.17
  Q 141.74 534.32 219.19 534.05
  Q 232.72 534.00 246.25 533.90
  Z"
/>
</svg>
